<?xml version="1.0" encoding="UTF-8" standalone="no"?>
<svg
   version="1.1"
   id="svg2"
   xml:space="preserve"
   width="1122.52"
   height="793.70135"
   viewBox="0 0 1122.52 793.70135"
   sodipodi:docname="Sorra.svg"
   inkscape:version="1.2.2 (b0a84865, 2022-12-01)"
   xmlns:inkscape="http://www.inkscape.org/namespaces/inkscape"
   xmlns:sodipodi="http://sodipodi.sourceforge.net/DTD/sodipodi-0.dtd"
   xmlns="http://www.w3.org/2000/svg"
   xmlns:svg="http://www.w3.org/2000/svg"
   xmlns:rdf="http://www.w3.org/1999/02/22-rdf-syntax-ns#"
   xmlns:cc="http://creativecommons.org/ns#"
   xmlns:dc="http://purl.org/dc/elements/1.1/"><metadata
     id="metadata8"><rdf:RDF><cc:Work
         rdf:about=""><dc:format>image/svg+xml</dc:format><dc:type
           rdf:resource="http://purl.org/dc/dcmitype/StillImage" /></cc:Work></rdf:RDF></metadata><defs
     id="defs6"><clipPath
       clipPathUnits="userSpaceOnUse"
       id="clipPath22"><path
         d="M 0,595.276 H 841.89 V 0 H 0 Z"
         id="path20" /></clipPath><clipPath
       clipPathUnits="userSpaceOnUse"
       id="clipPath42"><path
         d="M 0,595.276 H 841.89 V 0 H 0 Z"
         id="path40" /></clipPath><clipPath
       clipPathUnits="userSpaceOnUse"
       id="clipPath70"><path
         d="M 0,595.276 H 841.89 V 0 H 0 Z"
         id="path68" /></clipPath><clipPath
       clipPathUnits="userSpaceOnUse"
       id="clipPath1669"><g
         id="g1673"
         transform="matrix(0.35767179,0,0,0.35767179,-143.97213,-7.8837358)"><path
           d="m 220.10046,318.59889 c 0,-111.2053 90.1441,-201.35219 201.3494,-201.35219 v 0 c 111.19971,0 201.3522,90.14689 201.3522,201.35219 v 0 c 0,111.19971 -90.15249,201.3494 -201.3522,201.3494 v 0 c -111.2053,0 -201.3494,-90.14969 -201.3494,-201.3494"
           id="path1671"
           style="stroke-width:2.79586" /></g></clipPath><clipPath
       clipPathUnits="userSpaceOnUse"
       id="clipPath1675"><g
         id="g1679"
         transform="matrix(0.35767179,0,0,0.35767179,-143.78952,-143.15714)"><path
           d="m 220.10046,318.59889 c 0,-111.2053 90.1441,-201.35219 201.3494,-201.35219 v 0 c 111.19971,0 201.3522,90.14689 201.3522,201.35219 v 0 c 0,111.19971 -90.15249,201.3494 -201.3522,201.3494 v 0 c -111.2053,0 -201.3494,-90.14969 -201.3494,-201.3494"
           id="path1677"
           style="stroke-width:2.79586" /></g></clipPath><clipPath
       clipPathUnits="userSpaceOnUse"
       id="clipPath1681"><g
         id="g1685"
         transform="matrix(0.35767179,0,0,0.35767179,-129.84073,-142.30954)"><path
           d="m 220.10046,318.59889 c 0,-111.2053 90.1441,-201.35219 201.3494,-201.35219 v 0 c 111.19971,0 201.3522,90.14689 201.3522,201.35219 v 0 c 0,111.19971 -90.15249,201.3494 -201.3522,201.3494 v 0 c -111.2053,0 -201.3494,-90.14969 -201.3494,-201.3494"
           id="path1683"
           style="stroke-width:2.79586" /></g></clipPath><clipPath
       clipPathUnits="userSpaceOnUse"
       id="clipPath1687"><g
         id="g1691"
         transform="matrix(0.35767179,0,0,0.35767179,-186.75233,-102.03023)"><path
           d="m 220.10046,318.59889 c 0,-111.2053 90.1441,-201.35219 201.3494,-201.35219 v 0 c 111.19971,0 201.3522,90.14689 201.3522,201.35219 v 0 c 0,111.19971 -90.15249,201.3494 -201.3522,201.3494 v 0 c -111.2053,0 -201.3494,-90.14969 -201.3494,-201.3494"
           id="path1689"
           style="stroke-width:2.79586" /></g></clipPath><clipPath
       clipPathUnits="userSpaceOnUse"
       id="clipPath1693"><g
         id="g1697"
         transform="matrix(0.35767179,0,0,0.35767179,-153.26503,-139.71384)"><path
           d="m 220.10046,318.59889 c 0,-111.2053 90.1441,-201.35219 201.3494,-201.35219 v 0 c 111.19971,0 201.3522,90.14689 201.3522,201.35219 v 0 c 0,111.19971 -90.15249,201.3494 -201.3522,201.3494 v 0 c -111.2053,0 -201.3494,-90.14969 -201.3494,-201.3494"
           id="path1695"
           style="stroke-width:2.79586" /></g></clipPath><clipPath
       clipPathUnits="userSpaceOnUse"
       id="clipPath1699"><g
         id="g1703"
         transform="matrix(0.35767179,0,0,0.35767179,-121.88962,-141.22554)"><path
           d="m 220.10046,318.59889 c 0,-111.2053 90.1441,-201.35219 201.3494,-201.35219 v 0 c 111.19971,0 201.3522,90.14689 201.3522,201.35219 v 0 c 0,111.19971 -90.15249,201.3494 -201.3522,201.3494 v 0 c -111.2053,0 -201.3494,-90.14969 -201.3494,-201.3494"
           id="path1701"
           style="stroke-width:2.79586" /></g></clipPath><clipPath
       clipPathUnits="userSpaceOnUse"
       id="clipPath1705"><g
         id="g1709"
         transform="matrix(0.35767179,0,0,0.35767179,-122.78073,-142.14254)"><path
           d="m 220.10046,318.59889 c 0,-111.2053 90.1441,-201.35219 201.3494,-201.35219 v 0 c 111.19971,0 201.3522,90.14689 201.3522,201.35219 v 0 c 0,111.19971 -90.15249,201.3494 -201.3522,201.3494 v 0 c -111.2053,0 -201.3494,-90.14969 -201.3494,-201.3494"
           id="path1707"
           style="stroke-width:2.79586" /></g></clipPath><clipPath
       clipPathUnits="userSpaceOnUse"
       id="clipPath1711"><g
         id="g1715"
         transform="matrix(0.35767179,0,0,0.35767179,-146.77383,-144.24404)"><path
           d="m 220.10046,318.59889 c 0,-111.2053 90.1441,-201.35219 201.3494,-201.35219 v 0 c 111.19971,0 201.3522,90.14689 201.3522,201.35219 v 0 c 0,111.19971 -90.15249,201.3494 -201.3522,201.3494 v 0 c -111.2053,0 -201.3494,-90.14969 -201.3494,-201.3494"
           id="path1713"
           style="stroke-width:2.79586" /></g></clipPath><clipPath
       clipPathUnits="userSpaceOnUse"
       id="clipPath1717"><g
         id="g1721"
         transform="matrix(0.35767179,0,0,0.35767179,-147.34663,-144.43944)"><path
           d="m 220.10046,318.59889 c 0,-111.2053 90.1441,-201.35219 201.3494,-201.35219 v 0 c 111.19971,0 201.3522,90.14689 201.3522,201.35219 v 0 c 0,111.19971 -90.15249,201.3494 -201.3522,201.3494 v 0 c -111.2053,0 -201.3494,-90.14969 -201.3494,-201.3494"
           id="path1719"
           style="stroke-width:2.79586" /></g></clipPath><clipPath
       clipPathUnits="userSpaceOnUse"
       id="clipPath1723"><g
         id="g1727"
         transform="matrix(0.35767179,0,0,0.35767179,-144.22013,-144.49114)"><path
           d="m 220.10046,318.59889 c 0,-111.2053 90.1441,-201.35219 201.3494,-201.35219 v 0 c 111.19971,0 201.3522,90.14689 201.3522,201.35219 v 0 c 0,111.19971 -90.15249,201.3494 -201.3522,201.3494 v 0 c -111.2053,0 -201.3494,-90.14969 -201.3494,-201.3494"
           id="path1725"
           style="stroke-width:2.79586" /></g></clipPath><clipPath
       clipPathUnits="userSpaceOnUse"
       id="clipPath1729"><g
         id="g1733"
         transform="matrix(0.35767179,0,0,0.35767179,-149.96913,-139.25774)"><path
           d="m 220.10046,318.59889 c 0,-111.2053 90.1441,-201.35219 201.3494,-201.35219 v 0 c 111.19971,0 201.3522,90.14689 201.3522,201.35219 v 0 c 0,111.19971 -90.15249,201.3494 -201.3522,201.3494 v 0 c -111.2053,0 -201.3494,-90.14969 -201.3494,-201.3494"
           id="path1731"
           style="stroke-width:2.79586" /></g></clipPath><clipPath
       clipPathUnits="userSpaceOnUse"
       id="clipPath1735"><g
         id="g1739"
         transform="matrix(0.35767179,0,0,0.35767179,-143.41933,-143.78413)"><path
           d="m 220.10046,318.59889 c 0,-111.2053 90.1441,-201.35219 201.3494,-201.35219 v 0 c 111.19971,0 201.3522,90.14689 201.3522,201.35219 v 0 c 0,111.19971 -90.15249,201.3494 -201.3522,201.3494 v 0 c -111.2053,0 -201.3494,-90.14969 -201.3494,-201.3494"
           id="path1737"
           style="stroke-width:2.79586" /></g></clipPath><clipPath
       clipPathUnits="userSpaceOnUse"
       id="clipPath1741"><g
         id="g1745"
         transform="matrix(0.35767179,0,0,0.35767179,-129.15523,-135.05654)"><path
           d="m 220.10046,318.59889 c 0,-111.2053 90.1441,-201.35219 201.3494,-201.35219 v 0 c 111.19971,0 201.3522,90.14689 201.3522,201.35219 v 0 c 0,111.19971 -90.15249,201.3494 -201.3522,201.3494 v 0 c -111.2053,0 -201.3494,-90.14969 -201.3494,-201.3494"
           id="path1743"
           style="stroke-width:2.79586" /></g></clipPath><clipPath
       clipPathUnits="userSpaceOnUse"
       id="clipPath1747"><g
         id="g1751"
         transform="matrix(0.35767179,0,0,0.35767179,-90.149826,-134.88274)"><path
           d="m 220.10046,318.59889 c 0,-111.2053 90.1441,-201.35219 201.3494,-201.35219 v 0 c 111.19971,0 201.3522,90.14689 201.3522,201.35219 v 0 c 0,111.19971 -90.15249,201.3494 -201.3522,201.3494 v 0 c -111.2053,0 -201.3494,-90.14969 -201.3494,-201.3494"
           id="path1749"
           style="stroke-width:2.79586" /></g></clipPath><clipPath
       clipPathUnits="userSpaceOnUse"
       id="clipPath1753"><g
         id="g1757"
         transform="matrix(0.35767179,0,0,0.35767179,-91.940825,-135.36033)"><path
           d="m 220.10046,318.59889 c 0,-111.2053 90.1441,-201.35219 201.3494,-201.35219 v 0 c 111.19971,0 201.3522,90.14689 201.3522,201.35219 v 0 c 0,111.19971 -90.15249,201.3494 -201.3522,201.3494 v 0 c -111.2053,0 -201.3494,-90.14969 -201.3494,-201.3494"
           id="path1755"
           style="stroke-width:2.79586" /></g></clipPath><clipPath
       clipPathUnits="userSpaceOnUse"
       id="clipPath1759"><g
         id="g1763"
         transform="matrix(0.35767179,0,0,0.35767179,-91.039027,-135.14444)"><path
           d="m 220.10046,318.59889 c 0,-111.2053 90.1441,-201.35219 201.3494,-201.35219 v 0 c 111.19971,0 201.3522,90.14689 201.3522,201.35219 v 0 c 0,111.19971 -90.15249,201.3494 -201.3522,201.3494 v 0 c -111.2053,0 -201.3494,-90.14969 -201.3494,-201.3494"
           id="path1761"
           style="stroke-width:2.79586" /></g></clipPath></defs><sodipodi:namedview
     pagecolor="#ffffff"
     bordercolor="#666666"
     borderopacity="1"
     objecttolerance="10"
     gridtolerance="10"
     guidetolerance="10"
     inkscape:pageopacity="0"
     inkscape:pageshadow="2"
     inkscape:window-width="1710"
     inkscape:window-height="1044"
     id="namedview4"
     showgrid="false"
     inkscape:zoom="0.97164623"
     inkscape:cx="434.82904"
     inkscape:cy="375.65113"
     inkscape:window-x="0"
     inkscape:window-y="40"
     inkscape:window-maximized="1"
     inkscape:current-layer="g2517"
     inkscape:showpageshadow="2"
     inkscape:pagecheckerboard="0"
     inkscape:deskcolor="#d1d1d1" /><g
     id="g10"
     inkscape:groupmode="layer"
     inkscape:label="flossk_brandbook_trembelat"
     transform="matrix(1.3333333,0,0,-1.3333333,0,793.70133)"><g
       id="g1371"
       transform="translate(-75.312614,66.065821)"><g
         id="g64"
         transform="matrix(2.7958593,0,0,2.7958593,-942.75282,-469.47245)"><g
           id="g66"
           clip-path="url(#clipPath70)"><g
             id="g208"
             transform="translate(508.1518,152.1504)"><path
               d="m 0,0 c 0,0 10.208,19.415 10.224,18.389 0.32,-18.562 8.551,15.429 8.551,15.429 l 1.923,-5.761 c 0,0 1.419,21.115 3.498,22.235 l 1.351,0.915 4.41,-2.676 c 0,1.282 0.64,1.12 1.599,1.921 0.958,0.8 2.241,5.279 2.241,5.279 0,0 -0.318,-3.039 0.477,-2.079 0.804,0.96 1.762,3.679 1.762,3.679 l 0.802,-0.961 c 1.92,2.722 -1.443,11.686 -1.443,11.686 l -50.886,34.241 C -29.25,84.055 -0.286,48.691 -0.286,45.975 c 0,-2.723 -5.902,-13.542 -5.902,-13.542 2.081,0 3.201,2.428 2.561,1.466 -0.641,-0.961 -2.877,-5.52 -2.877,-5.52 L -0.747,33.5 -9.705,8.217 c 0,0 10.879,21.922 10.239,13.439 C -0.105,13.176 -11.17,0.684 -7.329,2.126 l 1.783,-0.634 1.494,1.495 -0.216,-1.921 0.962,-0.531 z"
               style="fill:#000000;fill-opacity:1;fill-rule:nonzero;stroke:none"
               id="path210" /></g></g></g><g
         id="g212"
         transform="matrix(2.7958593,0,0,2.7958593,-942.75282,-469.47245)"><path
           d="m 493.0961,290.1533 c 0,0 11.151,11.469 27.708,7.369 16.8,-4.16 19.498,-16.491 20.137,-27.531 0.296,-5.052 11.202,-6.083 15.844,-22.084 4.64,-16.004 -8.96,-25.763 -13.284,-27.683 0,0 3.363,-8.964 1.444,-11.685 l -0.802,0.962 c 0,0 -0.959,-2.721 -1.762,-3.68 -0.795,-0.96 -0.477,2.079 -0.477,2.079 0,0 -1.282,-4.479 -2.242,-5.279 -0.96,-0.8 -1.599,-0.641 -1.599,-1.92 0,-1.279 1.441,-9.121 2.719,-10.242 1.282,-1.12 6.401,0.639 9.124,-2.4 0,0 -5.281,1.763 -7.684,0.323 -2.395,-1.444 -3.675,-4.642 -3.675,-6.562 0,0 -1.122,3.037 0.477,6.562 1.6,3.517 -4.639,15.201 -6.719,14.079 -2.078,-1.119 -2.4,-14.402 -2.4,-14.402 l -2.082,2.723 c 0,0 -2.395,-8.484 -3.041,-9.282 -0.638,-0.8 0,6.561 0,6.561 0,0 -20.159,-32.323 -24.003,-33.763 -3.84,-1.442 11.469,19.574 12.111,28.053 0.64,8.484 -9.814,-12.587 -9.814,-12.587 l 8.269,22.296 -5.283,-4.64 c 0,0 1.92,4.479 2.557,5.439 0.642,0.963 -3.765,-6.977 -5.845,-6.977 0,0 5.049,9.541 5.049,12.262 0,2.72 -28.965,38.083 -15.206,56.323 12.803,16.965 3.703,16.814 3.703,16.814 z"
           style="fill:#000000;fill-opacity:1;fill-rule:nonzero;stroke:none"
           id="path222"
           transform="translate(1.1999304e-5)" /></g></g><g
       id="g228"
       transform="matrix(2.7958593,0,0,2.7958593,254.53231,377.84483)"
       clip-path="url(#clipPath1759)"><path
         d="m 0,0 c 0,0 21.123,13.44 40.006,10.24 l -1.28,-1.6 2.879,-0.957 -4.268,-0.428 c 0,0 5.548,-1.815 6.827,-2.454 1.28,-0.641 5.759,-7.04 5.759,-7.04 0,0 -5.279,-6.015 -10.559,-7.362 C 33.923,-10.986 21.869,-9.922 16,-5.762 11.871,-2.834 -0.962,-1.494 0,0"
         style="fill:#ffffff;fill-opacity:1;fill-rule:nonzero;stroke:none"
         id="path230" /></g><g
       id="g232"
       transform="matrix(2.7958593,0,0,2.7958593,257.05361,378.44845)"
       clip-path="url(#clipPath1753)"><path
         d="m 0,0 c 3.446,2.185 7.185,3.938 10.943,5.52 5.351,2.252 10.954,3.843 16.726,4.5 2.548,0.289 5.102,0.286 7.653,0.106 0.15,-0.01 2.809,-0.404 2.723,-0.516 -0.383,-0.475 -0.768,-0.955 -1.149,-1.433 0.015,-0.003 0.027,-0.008 0.039,-0.012 0.48,-0.161 0.961,-0.319 1.443,-0.481 0.325,-0.111 0.658,-0.22 0.99,-0.33 0.593,-0.201 2.906,0.446 1.755,0.33 C 39.822,7.556 38.527,7.427 37.228,7.296 36.874,7.262 35.66,6.741 35.55,6.776 37.716,6.068 39.893,5.359 42.002,4.491 43.96,3.683 45.454,0.92 46.656,-0.704 c 0.479,-0.646 0.943,-1.293 1.405,-1.946 0.143,-0.203 -1.666,-1.787 -1.82,-1.937 -3.561,-3.401 -7.395,-5.464 -12.41,-5.54 -3.781,-0.058 -7.589,0.515 -11.234,1.489 -3.396,0.906 -5.973,2.924 -9.151,4.211 -1.384,0.561 -13.803,3.368 -13.419,4.46 -0.082,-0.228 -1.705,-0.07 -1.857,-0.498 -0.435,-1.248 9.184,-3.128 10.084,-3.377 2.668,-0.735 4.827,-1.773 7.17,-3.173 2.666,-1.589 5.849,-2.36 8.862,-2.942 9.985,-1.92 18.722,-0.055 25.641,7.717 0.004,0.01 0.016,0.021 0.027,0.032 -1.906,2.713 -3.875,6.345 -7.075,7.583 -1.798,0.698 -3.639,1.295 -5.472,1.896 -1.77,-0.404 -2.231,-0.556 -1.386,-0.454 0.49,0.048 0.98,0.1 1.468,0.147 0.807,0.08 1.617,0.164 2.424,0.243 0.352,0.033 1.569,0.553 1.681,0.516 -0.814,0.272 -1.622,0.541 -2.433,0.809 -0.763,0.256 0.538,1.322 0.869,1.741 -0.014,10e-4 -0.026,0.006 -0.038,0.01 C 25.923,12.455 10.046,7.053 -1.801,-0.437 -1.515,-0.25 -0.475,-0.295 0,0"
         style="fill:#000000;fill-opacity:1;fill-rule:nonzero;stroke:none"
         id="path234" /></g><g
       id="g236"
       transform="matrix(2.7958593,0,0,2.7958593,252.04623,377.11315)"
       clip-path="url(#clipPath1747)"><path
         d="m 0,0 c 3.168,-0.005 6.338,-0.175 9.492,-0.47 4.101,-0.383 7.448,-1.771 11.319,-2.896 6.619,-1.92 16.14,-2.472 22.102,1.763 C 42.651,-1.79 41.564,-1.719 41.115,-2.039 34.549,-6.701 24.889,-3.45 18.103,-1.145 13.056,0.568 7.064,0.511 1.776,0.521 1.214,0.523 0.351,0 0,0"
         style="fill:#000000;fill-opacity:1;fill-rule:nonzero;stroke:none"
         id="path238" /></g><g
       id="g240"
       transform="matrix(2.7958593,0,0,2.7958593,361.09984,377.59907)"
       clip-path="url(#clipPath1741)"><path
         d="m 0,0 c 1.773,-0.723 3.147,-2.376 3.199,-4.319 0,0.016 1.864,0.224 1.854,0.497 C 5.005,-1.878 3.625,-0.226 1.854,0.498 1.617,0.595 1.135,0.395 0.905,0.332 0.799,0.303 0.066,-0.027 0,0"
         style="fill:#000000;fill-opacity:1;fill-rule:nonzero;stroke:none"
         id="path242" /></g><g
       id="g244"
       transform="matrix(2.7958593,0,0,2.7958593,400.98026,402.00021)"
       clip-path="url(#clipPath1735)"><path
         d="M 0,0 C 0,0 3.65,4.599 7.17,1.823 10.689,-0.949 9.923,-4.586 9.923,-4.586 9.923,-4.586 1.492,-7.253 0,0"
         style="fill:#ffffff;fill-opacity:1;fill-rule:nonzero;stroke:none"
         id="path246" /></g><g
       id="g248"
       transform="matrix(2.7958593,0,0,2.7958593,419.29258,389.34504)"
       clip-path="url(#clipPath1729)"><path
         d="M 0,0 C 1.261,0 2.362,0.229 2.884,0.364 2.895,0.483 2.906,0.638 2.906,0.825 2.897,1.973 2.58,4.122 0.283,5.933 -0.449,6.508 -1.135,6.705 -1.804,6.709 -2.91,6.714 -4.004,6.109 -4.822,5.466 -5.358,5.04 -5.759,4.622 -5.97,4.388 -5.084,0.725 -2.383,0.041 0,0 M -7.075,4.42 -6.552,4.526 -6.133,4.195 -6.552,4.526 -7.075,4.42 -7.127,4.669 -6.97,4.861 c 0.048,0.021 2.193,2.868 5.166,2.916 C -0.909,7.779 0.048,7.486 0.949,6.771 3.558,4.721 3.983,2.166 3.977,0.823 3.977,0.234 3.9,-0.141 3.894,-0.168 L 3.828,-0.475 3.53,-0.568 c -0.032,-0.01 -1.582,-0.501 -3.531,-0.505 -0.049,0 -0.098,-0.001 -0.145,-0.001 -2.599,0.001 -6.048,1.1 -6.929,5.494"
         style="fill:#000000;fill-opacity:1;fill-rule:nonzero;stroke:none"
         id="path250" /></g><g
       id="g252"
       transform="matrix(2.7958593,0,0,2.7958593,403.21918,403.97689)"
       clip-path="url(#clipPath1723)"><path
         d="M 0,0 C 0.88,1.05 2.609,1.051 3.861,0.001 5.113,-1.049 5.415,-2.751 4.534,-3.801 3.654,-4.852 1.925,-4.852 0.673,-3.802 -0.579,-2.753 -0.88,-1.051 0,0"
         style="fill:#000000;fill-opacity:1;fill-rule:nonzero;stroke:none"
         id="path254" /></g><g
       id="g256"
       transform="matrix(2.7958593,0,0,2.7958593,411.96044,403.83234)"
       clip-path="url(#clipPath1717)"><path
         d="M 0,0 C 0.291,0.346 0.861,0.345 1.273,-0.002 1.686,-0.349 1.786,-0.911 1.495,-1.257 1.204,-1.603 0.634,-1.602 0.221,-1.254 -0.192,-0.907 -0.291,-0.346 0,0"
         style="fill:#ffffff;fill-opacity:1;fill-rule:nonzero;stroke:none"
         id="path258" /></g><g
       id="g260"
       transform="matrix(2.7958593,0,0,2.7958593,410.35897,403.28603)"
       clip-path="url(#clipPath1711)"><path
         d="m 0,0 c 0.12,0.143 0.354,0.144 0.524,0.001 0.17,-0.143 0.21,-0.374 0.09,-0.517 C 0.494,-0.659 0.259,-0.659 0.09,-0.517 -0.08,-0.374 -0.12,-0.144 0,0"
         style="fill:#ffffff;fill-opacity:1;fill-rule:nonzero;stroke:none"
         id="path262" /></g><g
       id="g264"
       transform="matrix(2.7958593,0,0,2.7958593,343.27764,397.41053)"
       clip-path="url(#clipPath1705)"><path
         d="M 0,0 C 0.618,0.534 1.611,0.398 2.218,-0.305 2.826,-1.007 2.817,-2.01 2.199,-2.544 1.581,-3.078 0.587,-2.941 -0.02,-2.239 -0.627,-1.536 -0.618,-0.534 0,0"
         style="fill:#000000;fill-opacity:1;fill-rule:nonzero;stroke:none"
         id="path266" /></g><g
       id="g268"
       transform="matrix(2.7958593,0,0,2.7958593,340.78624,394.84673)"
       clip-path="url(#clipPath1699)"><path
         d="M 0,0 C 0.717,0.619 1.913,0.409 2.672,-0.469 3.431,-1.347 3.465,-2.561 2.749,-3.18 2.032,-3.8 0.835,-3.59 0.077,-2.712 -0.682,-1.833 -0.716,-0.619 0,0"
         style="fill:#ffffff;fill-opacity:1;fill-rule:nonzero;stroke:none"
         id="path270" /></g><g
       id="g272"
       transform="matrix(2.7958593,0,0,2.7958593,428.50745,390.62023)"
       clip-path="url(#clipPath1693)"><path
         d="M 0,0 C 0,0 2.595,2.98 -1.078,5.522 -1.078,5.522 0.564,3.801 0,0"
         style="fill:#ffffff;fill-opacity:1;fill-rule:nonzero;stroke:none"
         id="path274" /></g><g
       id="g276"
       transform="matrix(2.7958593,0,0,2.7958593,522.13323,285.26218)"
       clip-path="url(#clipPath1687)"><path
         d="m 0,0 c 0,0 0.8,-13.603 -5.921,-21.282 0,0 9.602,11.519 5.921,21.282"
         style="fill:#ffffff;fill-opacity:1;fill-rule:nonzero;stroke:none"
         id="path278" /></g><g
       id="g280"
       transform="matrix(2.7958593,0,0,2.7958593,363.0164,397.87744)"
       clip-path="url(#clipPath1681)"><path
         d="M 0,0 C 0,0 3.059,0.522 3.879,-0.149 4.699,-0.82 0,0 0,0"
         style="fill:#ffffff;fill-opacity:1;fill-rule:nonzero;stroke:none"
         id="path282" /></g><g
       id="g284"
       transform="matrix(2.7958593,0,0,2.7958593,402.01528,400.24721)"
       clip-path="url(#clipPath1675)"><path
         d="m 0,0 c 0,0 0.105,-1.337 1.679,-2.723 0,0 -1.948,1.36 -1.679,2.723"
         style="fill:#ffffff;fill-opacity:1;fill-rule:nonzero;stroke:none"
         id="path286" /></g><g
       id="g288"
       transform="matrix(2.7958593,0,0,2.7958593,402.52581,22.041816)"
       clip-path="url(#clipPath1669)"><path
         d="m 0,0 c 0,0 10.208,19.415 10.224,18.389 0.32,-18.562 8.551,15.429 8.551,15.429 l 1.922,-5.761 c 0,0 1.42,21.115 3.498,22.235 l 1.352,0.915 4.41,-2.676 c 0,1.282 0.64,1.12 1.598,1.921 0.959,0.8 2.242,5.279 2.242,5.279 0,0 -0.318,-3.039 0.477,-2.079 0.804,0.96 1.762,3.679 1.762,3.679 l 0.802,-0.961 c 1.92,2.722 -1.443,11.686 -1.443,11.686 l -50.886,34.241 C -29.25,84.055 -0.286,48.691 -0.286,45.975 c 0,-2.723 -5.902,-13.542 -5.902,-13.542 2.081,0 3.201,2.428 2.561,1.466 -0.641,-0.961 -2.878,-5.52 -2.878,-5.52 L -0.747,33.5 -9.706,8.217 c 0,0 10.879,21.922 10.239,13.439 C -0.105,13.176 -11.17,0.684 -7.329,2.126 l 1.783,-0.634 1.493,1.495 -0.215,-1.921 0.962,-0.531 z"
         style="fill:#000000;fill-opacity:1;fill-rule:nonzero;stroke:none"
         id="path290" /></g><g
       id="g2517"
       inkscape:groupmode="layer"><path
         d="m 378.91114,192.62754 c 0,0 -8.94395,-20.58591 -7.75571,-43.85305 0.32991,-6.53672 -5.96637,-26.24194 -13.11538,-26.24194 -7.17138,0 -19.09851,-7.75292 -19.09851,-7.75292 0,0 16.69407,5.96078 20.87109,3.57591 4.1854,-2.38207 2.99156,-20.281166 2.99156,-20.281166 0,0 2.98319,17.297986 4.77254,18.497406 1.78935,1.18824 16.10415,-0.59831 16.10415,-0.59831 0,0 -13.71929,5.35966 -13.71929,9.53947 0,4.17701 6.85545,16.70246 13.42013,23.25596 6.55349,6.56467 15.80779,23.26993 18.79097,30.42733"
         style="fill:#000000;fill-opacity:1;fill-rule:nonzero;stroke:none;stroke-width:2.79586"
         id="path226"
         clip-path="none" /><g
         id="g2514"
         style="display:none"><g
           id="g2512"
           transform="translate(-1.2195719e-5)"><path
             d="m 220.10046,318.59889 c 0,-111.2053 284.85622,-274.790808 201.3494,-201.35219 L 304.32208,220.25269 c -83.50261,73.43492 318.47998,-12.8591 318.47998,98.3462 v 0 c 0,111.19971 -90.15249,201.3494 -201.3522,201.3494 v 0 c -111.2053,0 -201.3494,-90.14969 -201.3494,-201.3494"
             id="path2510"
             style="stroke-width:2.79586"
             sodipodi:nodetypes="cssssssc" /></g></g></g></g></svg>
