<?xml version="1.0" encoding="utf-8"?>
<!-- Generator: Adobe Illustrator 26.3.1, SVG Export Plug-In . SVG Version: 6.00 Build 0)  -->
<svg version="1.1"
	 id="Layer_1" xmlns:inkscape="http://www.inkscape.org/namespaces/inkscape" xmlns:cc="http://creativecommons.org/ns#" xmlns:dc="http://purl.org/dc/elements/1.1/" xmlns:svg="http://www.w3.org/2000/svg" xmlns:rdf="http://www.w3.org/1999/02/22-rdf-syntax-ns#" xmlns:sodipodi="http://sodipodi.sourceforge.net/DTD/sodipodi-0.dtd"
	 xmlns="http://www.w3.org/2000/svg" xmlns:xlink="http://www.w3.org/1999/xlink" x="0px" y="0px" viewBox="0 0 1200 1200"
	 style="enable-background:new 0 0 1200 1200;" xml:space="preserve">
<style type="text/css">
	.st0{fill:#FFFFFF;}
</style>
<sodipodi:namedview  bordercolor="#666666" borderopacity="1" gridtolerance="10" guidetolerance="10" id="namedview73" inkscape:current-layer="Layer_1" inkscape:cx="600" inkscape:cy="600" inkscape:pageopacity="0" inkscape:pageshadow="2" inkscape:window-height="1138" inkscape:window-maximized="1" inkscape:window-width="1920" inkscape:window-x="0" inkscape:window-y="25" inkscape:zoom="0.6125" objecttolerance="10" pagecolor="#ffffff" showgrid="false">
	</sodipodi:namedview>
<g>
	<path id="path4" class="st0" d="M643.8,429.1l-5-1l-4.2,21.3l-6.6-1.3l4.2-21.3l-3.9-0.8l1.1-5.8l3.9,0.8l0.6-3.2
		c0.2-1.5,0.8-3,1.7-4.3c0.7-0.9,1.6-1.7,2.6-2.2c1-0.4,2.1-0.6,3.1-0.6c1.1,0,2.2,0.1,3.3,0.4l3.2,0.6l-1.2,6.1l-3.3-0.7
		c-0.5-0.1-1.1-0.1-1.6,0c-0.5,0.1-0.9,0.6-1,1.1l-0.8,4l5,1L643.8,429.1z"/>
	<path id="path6" class="st0" d="M668.7,435.1l-1,0.3c-0.5-0.5-1.1-1-1.7-1.3c-0.8-0.4-1.7-0.7-2.5-1c-0.6-0.2-1.3-0.3-2-0.3
		c-0.7,0-1.5,0.2-2.1,0.4c-0.7,0.3-1.4,0.7-1.9,1.3c-0.6,0.6-1.1,1.4-1.4,2.3l-5.6,16.9l-6.4-2.1l9.2-27.9l3.7,1.2l1.5,4.3
		c0.4-0.4,0.8-0.8,1.3-1.1c0.5-0.4,1.1-0.6,1.7-0.8c0.6-0.2,1.3-0.3,2-0.3c0.8,0,1.5,0.1,2.2,0.3c0.7,0.3,1.4,0.6,2,1
		c0.9,0.6,1.7,1.3,2.4,2.1L668.7,435.1z"/>
	<path id="path8" class="st0" d="M675.5,458c0.5,0.3,1,0.5,1.6,0.6c0.6,0.2,1.2,0.2,1.8,0.2c0.6,0,1.2-0.2,1.6-0.5
		c0.6-0.4,1-0.9,1.3-1.5l6,3c-0.7,1.4-1.6,2.6-2.8,3.5c-1.1,0.8-2.3,1.4-3.6,1.7c-1.4,0.3-2.8,0.2-4.2,0c-1.5-0.3-3-0.9-4.4-1.6
		c-3.3-1.7-5.5-3.8-6.6-6.3c-1.1-2.5-0.9-5.4,0.7-8.5l4.1-8.2c1.6-3.2,3.8-5.1,6.5-5.7c3.1-0.5,6.2,0,8.9,1.5
		c1.5,0.7,2.9,1.7,4.1,2.8c1.1,1,1.9,2.2,2.5,3.5c0.5,1.3,0.8,2.7,0.7,4.1c-0.1,1.6-0.6,3.2-1.3,4.6l-2.8,5.5l-15.5-7.8l-1.6,3.2
		c-0.3,0.6-0.5,1.2-0.4,1.9c0.1,0.6,0.3,1.1,0.6,1.6c0.3,0.5,0.8,1,1.2,1.4C674.4,457.4,674.9,457.7,675.5,458L675.5,458z
		 M676.6,444l9.5,4.8l0.5-1.1c0.3-0.6,0.5-1.3,0.4-1.9c-0.1-0.6-0.3-1.2-0.6-1.7c-0.3-0.5-0.8-1-1.2-1.4c-0.5-0.4-1-0.7-1.5-1
		c-0.5-0.3-1.1-0.5-1.7-0.6c-0.6-0.1-1.2-0.2-1.8-0.1c-0.6,0.1-1.2,0.3-1.7,0.6c-0.6,0.4-1,0.9-1.3,1.5L676.6,444z"/>
	<path id="path10" class="st0" d="M699.8,473.2c0.5,0.3,1,0.6,1.5,0.9c0.5,0.3,1.1,0.5,1.7,0.5c0.6,0.1,1.2,0,1.7-0.2
		c0.6-0.3,1.2-0.7,1.6-1.3l5.4,4.1c-0.9,1.2-2,2.2-3.4,2.9c-1.2,0.6-2.5,1-3.9,1c-1.4,0-2.8-0.3-4.1-0.8c-1.5-0.6-2.8-1.4-4.1-2.3
		c-2.9-2.2-4.7-4.7-5.4-7.4c-0.7-2.7,0.1-5.5,2.2-8.3l5.5-7.3c2.2-2.9,4.6-4.4,7.4-4.5c3.1,0,6.1,1.1,8.5,3.1c1.3,1,2.5,2.2,3.5,3.5
		c0.9,1.2,1.5,2.5,1.9,3.9c0.3,1.4,0.3,2.8,0,4.1c-0.4,1.6-1.1,3-2.1,4.3l-3.8,4.9L700.1,464l-2.2,2.9c-0.4,0.5-0.7,1.1-0.7,1.8
		c0,0.6,0.1,1.2,0.3,1.7c0.2,0.6,0.6,1.1,1,1.5C698.9,472.4,699.3,472.8,699.8,473.2L699.8,473.2z M703.4,459.6l8.5,6.4l0.7-1
		c0.4-0.5,0.7-1.2,0.7-1.8c0-0.6-0.1-1.2-0.3-1.8c-0.2-0.6-0.6-1.1-1-1.6c-0.4-0.5-0.8-0.9-1.3-1.3c-0.5-0.4-1-0.7-1.6-0.9
		c-0.6-0.2-1.2-0.4-1.8-0.4c-0.6,0-1.2,0-1.7,0.3c-0.6,0.3-1.1,0.7-1.5,1.2L703.4,459.6z"/>
	<path id="path12" class="st0" d="M719.4,498.7l30.2-25.5l4.4,5.2l-30.2,25.6L719.4,498.7z"/>
	<path id="path14" class="st0" d="M732,514.9l-4-5.6l24-16.9l4,5.6L732,514.9z M759.2,495.8l-4-5.7l5.1-3.6l4,5.7L759.2,495.8z"/>
	<path id="path16" class="st0" d="M761.3,514.1c0.6-0.1,1.3,0,1.9,0.2c0.8,0.3,1.5,0.6,2.2,1.1c0.8,0.5,1.4,1.1,2.1,1.7
		c0.6,0.7,1.1,1.4,1.5,2.2c1.4,2.8,1.7,5.2,0.9,7.3c-1,2.3-2.9,4.2-5.3,5.2l-9.6,5c-1.3,0.7-2.8,1.1-4.3,1.2c-1.4,0-2.7-0.3-3.9-0.8
		c-1.3-0.6-2.4-1.5-3.4-2.5c-1.1-1.1-2-2.4-2.7-3.8c-1.6-2.7-2.2-5.9-1.8-9c0.5-2.7,2.2-4.9,5.1-6.4l26.6-13.8l3.1,6L761.3,514.1z
		 M746.8,521.7c-0.6,0.3-1,0.8-1.3,1.3c-0.2,0.5-0.3,1.1-0.3,1.7c0,0.6,0.1,1.2,0.3,1.7c0.2,0.6,0.4,1.1,0.7,1.6
		c0.3,0.5,0.6,1.1,1,1.5c0.3,0.5,0.7,0.9,1.2,1.2c0.4,0.3,1,0.5,1.5,0.6c0.6,0,1.3-0.1,1.8-0.3l10-5.2c1.2-0.8,1.9-1.5,2-2.2
		c0.1-0.9-0.1-1.8-0.6-2.6c-0.3-0.6-0.7-1.2-1.1-1.7c-0.5-0.6-1.1-1.2-1.7-1.7c-0.7-0.5-1.4-0.8-2.2-0.9c-1-0.1-1.9,0.1-2.8,0.6
		L746.8,521.7z"/>
	<path id="path18" class="st0" d="M776.6,556.5l-0.8-0.7c0.2-0.7,0.2-1.4,0-2.1c-0.2-0.9-0.4-1.8-0.7-2.6c-0.2-0.6-0.6-1.2-1-1.7
		c-0.5-0.6-1-1.1-1.6-1.4c-0.7-0.4-1.4-0.7-2.2-0.8c-0.9-0.1-1.8,0-2.6,0.3l-16.9,5.6l-2.1-6.4l27.9-9.2l1.2,3.7l-2.6,3.8
		c0.6,0,1.1,0.2,1.7,0.4c0.6,0.2,1.2,0.5,1.7,0.9c0.6,0.4,1.1,0.9,1.5,1.4c0.5,0.6,0.8,1.3,1,2c0.2,0.7,0.4,1.5,0.4,2.2
		c0,1.1-0.1,2.1-0.3,3.2L776.6,556.5z"/>
	<path id="path20" class="st0" d="M762.1,575.5c0.1,0.6,0.3,1.1,0.5,1.6c0.2,0.6,0.5,1.1,0.9,1.6c0.4,0.4,0.8,0.8,1.4,1
		c0.6,0.2,1.3,0.3,2,0.1l1.1,6.6c-1.5,0.3-3,0.2-4.5-0.2c-1.3-0.4-2.5-1.1-3.5-2c-1-1-1.9-2.1-2.4-3.4c-0.7-1.4-1.1-2.9-1.4-4.5
		c-0.6-3.6-0.2-6.7,1.1-9.1c1.4-2.4,3.8-3.9,7.2-4.5l9-1.5c3.6-0.6,6.4,0,8.5,1.9s3.4,4.5,4,8.1c0.3,1.7,0.4,3.3,0.2,5
		c-0.1,1.5-0.6,2.9-1.3,4.1c-0.7,1.2-1.7,2.2-2.9,3c-1.4,0.9-2.9,1.4-4.5,1.7l-6.1,1l-2.9-17.1l-3.5,0.6c-0.7,0.1-1.3,0.4-1.8,0.8
		c-0.4,0.4-0.8,0.9-1,1.4c-0.2,0.6-0.3,1.2-0.4,1.8C761.9,574.3,762,574.9,762.1,575.5L762.1,575.5z M774.1,568.1l1.8,10.4l1.2-0.2
		c0.7-0.1,1.3-0.4,1.8-0.8c0.4-0.4,0.8-0.9,1-1.5c0.2-0.6,0.4-1.2,0.4-1.8c0.1-1.2-0.1-2.5-0.6-3.6c-0.2-0.6-0.6-1.1-1-1.5
		c-0.4-0.4-0.9-0.8-1.4-1c-0.6-0.2-1.3-0.3-2-0.2L774.1,568.1z"/>
	<path id="path22" class="st0" d="M757.6,618c0.4-3.7,1.6-6.5,3.5-8.4c2-2,4.7-2.8,8.2-2.4l9.1,1c3.6,0.4,6.1,1.7,7.7,4
		c1.6,2.3,2.1,5.3,1.8,9c-0.4,3.7-1.6,6.5-3.6,8.4c-2,2-4.8,2.8-8.3,2.4l-9.1-1c-3.5-0.4-6-1.7-7.5-4
		C757.8,624.7,757.2,621.7,757.6,618z M763.6,618.7c-0.1,0.6-0.1,1.2,0,1.8c0.1,0.6,0.2,1.2,0.5,1.7c0.2,0.5,0.6,1,1.1,1.4
		c0.5,0.4,1.2,0.6,1.8,0.7l10.3,1c0.7,0.1,1.4,0,2-0.3c0.5-0.3,1-0.7,1.4-1.1c0.4-0.5,0.7-1,0.8-1.6c0.2-0.6,0.3-1.2,0.4-1.8
		c0.1-0.6,0.1-1.2,0-1.9c-0.1-0.6-0.2-1.2-0.5-1.8c-0.3-0.5-0.6-1-1.1-1.4c-0.6-0.4-1.2-0.6-1.9-0.7l-10.3-1c-0.7-0.1-1.3,0-1.9,0.3
		c-0.5,0.3-1,0.7-1.3,1.1c-0.4,0.5-0.6,1-0.8,1.6C763.8,617.4,763.7,618,763.6,618.7L763.6,618.7z"/>
	<path id="path24" class="st0" d="M778.5,649.2c0.4,0.4,0.8,0.8,1.1,1.3c0.4,0.6,0.7,1.3,0.9,1.9c0.2,0.8,0.4,1.6,0.4,2.4
		c0,0.9-0.1,1.8-0.4,2.7c-1,3.5-2.6,5.7-4.7,6.6c-2.1,0.9-4.9,0.9-8.3-0.1l-8.8-2.6c-1.5-0.4-3-1-4.3-1.8c-1.1-0.6-2-1.5-2.7-2.6
		c-0.6-1-1-2.2-1-3.5c0-1.6,0.2-3.1,0.7-4.7c0.2-0.8,0.6-1.5,1.1-2.2c0.5-0.7,1-1.3,1.6-1.8c0.5-0.5,1.1-0.9,1.8-1.3
		c0.5-0.3,1.1-0.5,1.6-0.6l-13.7-4l1.9-6.4l38.4,11.3l-1.1,3.7L778.5,649.2z M764.6,645c-0.8-0.3-1.7-0.3-2.5-0.1
		c-0.8,0.2-1.5,0.5-2.1,1c-0.6,0.4-1.1,1-1.6,1.6c-0.4,0.5-0.7,1.1-0.9,1.8c-0.2,0.5-0.3,1.1-0.4,1.6c-0.1,0.5-0.1,1,0,1.5
		c0.1,0.5,0.3,0.9,0.7,1.3c0.5,0.4,1,0.7,1.6,0.9l11,3.2c0.6,0.2,1.2,0.3,1.8,0.2c0.5-0.1,1-0.3,1.3-0.6c0.4-0.3,0.7-0.7,0.9-1.2
		c0.3-0.5,0.5-1,0.6-1.6c0.2-0.6,0.3-1.3,0.2-2c0-0.8-0.2-1.5-0.5-2.2c-0.3-0.7-0.7-1.4-1.3-2c-0.6-0.6-1.3-1.1-2.1-1.3L764.6,645z"
		/>
	<path id="path26" class="st0" d="M747,675.7c-0.3,0.5-0.5,1.1-0.6,1.6c-0.2,0.6-0.2,1.2-0.2,1.8c0,0.6,0.2,1.2,0.5,1.7
		c0.4,0.6,0.9,1,1.5,1.3l-3,6c-1.4-0.7-2.6-1.6-3.5-2.8c-0.8-1.1-1.4-2.3-1.7-3.6c-0.3-1.4-0.2-2.8,0-4.2c0.3-1.5,0.8-3,1.6-4.4
		c1.7-3.3,3.8-5.5,6.3-6.6c2.6-1.1,5.4-0.9,8.5,0.7l8.2,4.1c3.2,1.6,5.1,3.8,5.7,6.5c0.6,3.1,0,6.2-1.5,8.9
		c-0.7,1.5-1.7,2.9-2.8,4.1c-1,1.1-2.2,1.9-3.5,2.5c-1.3,0.5-2.7,0.8-4.1,0.7c-1.6-0.1-3.2-0.6-4.6-1.3l-5.5-2.8l7.8-15.5l-3.2-1.6
		c-0.6-0.3-1.2-0.5-1.9-0.4c-0.6,0.1-1.1,0.3-1.6,0.6c-0.5,0.3-1,0.8-1.3,1.2C747.6,674.6,747.3,675.1,747,675.7L747,675.7z
		 M761,676.8l-4.8,9.5l1.1,0.5c0.6,0.3,1.3,0.5,1.9,0.4c0.6-0.1,1.2-0.3,1.7-0.6c0.5-0.3,1-0.8,1.4-1.2c0.8-0.9,1.4-2,1.6-3.3
		c0.1-0.6,0.2-1.2,0.1-1.8c-0.1-0.6-0.3-1.2-0.6-1.7c-0.4-0.6-0.9-1-1.5-1.3L761,676.8z"/>
	<path id="path28" class="st0" d="M755,709.1l-4.8,0c0.3,0.5,0.5,1.1,0.6,1.7c0.1,0.8,0.1,1.5,0,2.3c-0.1,0.8-0.3,1.7-0.6,2.5
		c-0.3,0.8-0.7,1.6-1.3,2.3c-0.8,1.1-1.8,2.2-2.9,3c-0.9,0.7-2,1.1-3.1,1.1c-1.2,0.1-2.4-0.2-3.5-0.7c-1.4-0.7-2.8-1.5-4-2.4
		l-15.7-12l4.1-5.3l16.1,12.3c1.2,0.9,2.1,1.3,2.8,1.1c0.9-0.3,1.6-0.8,2.1-1.6c0.4-0.6,0.8-1.2,1-1.9c0.2-0.8,0.4-1.6,0.4-2.4
		c0-0.8-0.1-1.6-0.4-2.4c-0.2-0.8-0.7-1.4-1.4-1.9l-14.5-11.1l4.1-5.3l23.3,17.9L755,709.1z"/>
	<path id="path30" class="st0" d="M708,730.4c-1-0.5-2.1-0.7-3.2-0.7c-1.3,0.1-2.6,0.5-3.6,1.4c-0.5,0.3-0.9,0.7-1.2,1.2
		c-0.4,0.4-0.7,0.9-0.9,1.4c-0.2,0.4-0.3,0.9-0.3,1.4c0,0.5,0.2,0.9,0.5,1.3l0.3,0.5c0.2,0.3,0.6,0.5,1,0.6c0.4,0,0.9,0,1.3-0.1
		c0.5-0.1,1.1-0.3,1.5-0.5c0.5-0.3,1.1-0.5,1.7-0.8c1-0.6,2.1-1.1,3.3-1.6c1.2-0.5,2.4-0.8,3.6-0.9c1.3-0.1,2.5,0.1,3.7,0.6
		c1.4,0.6,2.6,1.6,3.5,2.9c0.9,1.1,1.5,2.3,1.8,3.7c0.2,1.2,0.2,2.4-0.2,3.6c-0.4,1.2-1,2.4-1.8,3.3c-0.9,1.1-2,2.1-3.1,3
		c-1.7,1.3-3.7,2.3-5.7,2.9c-2,0.6-4.2,0.5-6.2-0.4c0.4-1.2,0.7-2.1,0.9-2.9c0.2-0.7,0.5-1.7,0.8-2.9c1,0.3,2.1,0.3,3.1,0
		c1.2-0.3,2.4-0.8,3.4-1.6c0.4-0.3,0.7-0.6,1-0.9c0.3-0.4,0.6-0.7,0.8-1.2c0.2-0.4,0.3-0.8,0.4-1.2c0-0.4-0.1-0.8-0.4-1.2l-0.2-0.3
		c-0.6-0.6-1.4-0.8-2.2-0.5c-1.1,0.3-2.2,0.8-3.2,1.3c-1,0.6-2.2,1.1-3.3,1.7c-1.1,0.5-2.4,0.9-3.6,1c-1.3,0.1-2.6-0.1-3.7-0.7
		c-1.5-0.7-2.8-1.9-3.7-3.2c-0.9-1.1-1.5-2.4-1.8-3.9c-0.2-1.3-0.1-2.5,0.2-3.8c0.4-1.3,1.1-2.5,1.9-3.5c0.9-1.2,2-2.2,3.2-3.1
		c0.9-0.7,1.9-1.3,2.9-1.8c1-0.5,2.1-0.9,3.2-1.2c1.1-0.2,2.2-0.3,3.3-0.3c1.1,0.1,2.2,0.4,3.2,0.9L708,730.4z"/>
	<path id="path32" class="st0" d="M675.4,740.5c3.3-1.7,6.3-2.3,9-1.7c2.7,0.6,4.9,2.4,6.5,5.5l4.3,8.1c1.7,3.2,1.9,6,0.9,8.6
		c-1.1,2.6-3.3,4.7-6.5,6.4c-3.3,1.7-6.2,2.3-9,1.7c-2.8-0.6-4.9-2.5-6.6-5.6l-4.2-8.1c-1.6-3.1-1.9-5.9-0.8-8.5
		C670,744.4,672.1,742.2,675.4,740.5z M678.2,745.9c-0.5,0.3-1.1,0.6-1.5,1c-0.5,0.4-0.9,0.8-1.2,1.4c-0.3,0.5-0.5,1.1-0.6,1.6
		c0,0.7,0.1,1.3,0.4,1.9l4.8,9.1c0.3,0.6,0.8,1.1,1.3,1.5c0.5,0.3,1.1,0.5,1.7,0.5c0.6,0,1.2,0,1.8-0.2c0.6-0.2,1.2-0.4,1.7-0.7
		c0.5-0.3,1.1-0.6,1.5-1c0.5-0.4,0.9-0.9,1.2-1.4c0.3-0.5,0.5-1.1,0.5-1.7c0-0.7-0.1-1.4-0.5-2l-4.8-9.1c-0.3-0.6-0.7-1.1-1.3-1.4
		c-0.5-0.3-1.1-0.4-1.7-0.5c-0.6,0-1.2,0-1.8,0.2C679.3,745.3,678.7,745.6,678.2,745.9L678.2,745.9z"/>
	<path id="path34" class="st0" d="M641.6,754.4l3.9,2.8c0.1-0.6,0.3-1.2,0.6-1.8c0.4-0.7,0.8-1.3,1.3-1.9c0.6-0.6,1.2-1.2,1.9-1.7
		c0.7-0.5,1.5-0.9,2.4-1.1c1.3-0.4,2.7-0.7,4.1-0.7c1.1,0,2.2,0.3,3.2,0.9c1,0.6,1.8,1.5,2.4,2.6c0.8,1.4,1.4,2.8,1.8,4.3l5.8,18.9
		l-6.4,2l-6-19.3c-0.4-1.4-1-2.3-1.7-2.5c-0.8-0.3-1.8-0.3-2.6,0.1c-0.7,0.2-1.3,0.6-1.9,1c-0.6,0.5-1.2,1.1-1.7,1.7
		c-0.5,0.7-0.9,1.4-1.1,2.2c-0.2,0.8-0.2,1.6,0,2.3l5.4,17.5l-6.5,2l-8.6-28.1L641.6,754.4z"/>
	<path id="path36" class="st0" d="M616.1,782.4l0.8-0.7c0.7,0.3,1.4,0.4,2.1,0.4c0.9,0,1.8-0.1,2.7-0.2c0.7-0.1,1.3-0.3,1.9-0.6
		c0.6-0.3,1.2-0.8,1.7-1.3c0.5-0.6,0.9-1.3,1.2-2c0.3-0.9,0.4-1.8,0.2-2.7l-2.4-17.6l6.7-0.9l4,29.1l-3.9,0.5l-3.3-3.3
		c-0.1,0.6-0.4,1.1-0.6,1.6c-0.3,0.6-0.7,1.1-1.2,1.5c-0.5,0.5-1.1,0.9-1.7,1.2c-0.7,0.3-1.4,0.6-2.1,0.7c-0.8,0.1-1.5,0.1-2.3,0
		c-1.1-0.1-2.1-0.4-3.1-0.8L616.1,782.4z"/>
	<path id="path38" class="st0" d="M600.5,764.8c-0.6,0-1.2,0-1.7,0.2c-0.6,0.1-1.2,0.3-1.7,0.6c-0.5,0.3-1,0.7-1.3,1.2
		c-0.4,0.6-0.5,1.3-0.5,2l-6.7-0.1c0-1.5,0.3-3,1-4.4c0.6-1.2,1.5-2.3,2.5-3.1c1.1-0.8,2.4-1.5,3.8-1.8c1.5-0.4,3.1-0.6,4.7-0.6
		c3.7,0,6.6,0.9,8.8,2.7c2.2,1.8,3.2,4.4,3.2,7.9l-0.1,9.2c0,3.6-1.1,6.2-3.3,8s-5.1,2.6-8.8,2.6c-1.6,0-3.2-0.2-4.8-0.7
		c-1.4-0.4-2.7-1.1-3.8-2c-1.1-0.9-1.9-2-2.4-3.3c-0.6-1.5-0.9-3-0.8-4.6l6.7,0.1c0,0.7,0.1,1.5,0.5,2.1c0.3,0.5,0.7,1,1.2,1.4
		c0.5,0.3,1.1,0.6,1.7,0.7c0.6,0.1,1.2,0.2,1.8,0.2c0.6,0,1.2-0.1,1.9-0.2c0.6-0.1,1.2-0.3,1.7-0.7c0.5-0.3,0.9-0.7,1.3-1.2
		c0.4-0.6,0.5-1.3,0.5-2l0.1-10.3c0-0.7-0.1-1.3-0.5-1.9c-0.3-0.5-0.7-0.9-1.2-1.2c-0.5-0.3-1.1-0.5-1.7-0.7
		C601.8,764.8,601.2,764.8,600.5,764.8z"/>
	<path id="path40" class="st0" d="M573.6,762.2c-0.6-0.1-1.1-0.1-1.7-0.1c-0.6,0-1.2,0.1-1.8,0.3c-0.6,0.2-1.1,0.5-1.4,1
		c-0.4,0.5-0.7,1.2-0.8,1.8l-6.6-1.2c0.2-1.5,0.8-2.9,1.7-4.2c0.8-1.1,1.8-2,3-2.6c1.2-0.6,2.6-1,4-1.2c1.6-0.1,3.2,0,4.7,0.2
		c3.6,0.7,6.3,2.1,8.2,4.2s2.4,4.9,1.8,8.3l-1.6,9c-0.7,3.5-2.2,6-4.6,7.3c-2.8,1.4-6,1.7-9,1c-1.6-0.3-3.2-0.8-4.7-1.5
		c-1.3-0.6-2.5-1.5-3.4-2.7c-0.9-1.1-1.5-2.4-1.8-3.7c-0.3-1.6-0.3-3.2,0-4.8l1.1-6.1l17,3.1l0.6-3.5c0.1-0.6,0.1-1.3-0.1-1.9
		c-0.2-0.5-0.6-1-1-1.4c-0.5-0.4-1-0.8-1.6-1C574.7,762.4,574.1,762.3,573.6,762.2L573.6,762.2z M576.4,776l-10.4-1.9l-0.2,1.2
		c-0.2,0.7-0.1,1.4,0.2,2c0.2,0.6,0.6,1.1,1.1,1.5c0.5,0.4,1,0.7,1.6,1c0.6,0.3,1.2,0.4,1.8,0.6c0.6,0.1,1.2,0.1,1.8,0.1
		c0.6,0,1.2-0.2,1.8-0.4c0.5-0.2,1-0.6,1.4-1c0.4-0.5,0.7-1.1,0.8-1.8L576.4,776z"/>
	<path id="path42" class="st0" d="M537.7,755.3c0-1.1-0.3-2.2-0.8-3.2c-0.7-1.1-1.7-2-2.9-2.6c-0.5-0.2-1.1-0.4-1.6-0.6
		c-0.5-0.1-1.1-0.2-1.6-0.1c-0.5,0-0.9,0.2-1.4,0.4c-0.4,0.2-0.8,0.6-1,1l-0.2,0.5c-0.2,0.4-0.2,0.8-0.1,1.1
		c0.2,0.4,0.4,0.8,0.7,1.1c0.4,0.4,0.8,0.8,1.2,1.1c0.5,0.4,1,0.7,1.5,1.1c1,0.7,2,1.4,2.9,2.2c1,0.8,1.8,1.7,2.5,2.8
		c0.7,1.1,1.1,2.3,1.2,3.5c0.1,1.5-0.3,3-1,4.4c-0.6,1.3-1.4,2.4-2.5,3.3c-0.9,0.8-2,1.3-3.2,1.5c-1.3,0.2-2.5,0.2-3.8,0
		c-3.6-0.7-6.8-2.5-9.3-5.1c-1.5-1.5-2.4-3.5-2.5-5.7l3-0.5c0.7-0.1,1.7-0.3,2.9-0.6c0.2,1,0.7,2,1.4,2.8c0.8,1,1.8,1.8,3,2.3
		c0.4,0.2,0.8,0.3,1.3,0.4c0.5,0.1,0.9,0.2,1.4,0.2c0.4,0,0.9-0.1,1.3-0.2c0.4-0.2,0.7-0.5,0.9-0.9l0.1-0.3c0.3-0.8,0.1-1.7-0.5-2.2
		c-0.8-0.8-1.7-1.6-2.7-2.2c-1-0.7-2-1.4-3-2.2c-1-0.8-1.9-1.7-2.5-2.8c-0.7-1.1-1.1-2.3-1.1-3.6c0-1.7,0.4-3.3,1.1-4.8
		c0.6-1.3,1.5-2.5,2.6-3.4c1-0.8,2.2-1.3,3.4-1.5c1.3-0.2,2.7-0.2,4,0.1c1.5,0.3,2.9,0.8,4.2,1.4c1,0.5,2,1.1,2.9,1.7
		c0.9,0.7,1.8,1.4,2.5,2.3c0.7,0.9,1.3,1.8,1.8,2.8c0.5,1,0.7,2.1,0.7,3.3L537.7,755.3z"/>
	<path id="path44" class="st0" d="M513.6,731.1c3,2.1,4.9,4.5,5.7,7.2c0.8,2.7,0.2,5.5-1.8,8.3l-5.2,7.5c-2,2.9-4.4,4.5-7.2,4.8
		c-2.8,0.2-5.7-0.7-8.8-2.8c-3-2.1-4.9-4.5-5.7-7.2c-0.7-2.7-0.1-5.5,2-8.4l5.2-7.5c2-2.9,4.4-4.4,7.1-4.6
		C507.7,728,510.6,729,513.6,731.1z M510.2,736.1c-0.5-0.4-1-0.6-1.6-0.9c-0.6-0.2-1.1-0.4-1.8-0.4c-0.6,0-1.2,0-1.7,0.3
		c-0.6,0.3-1.1,0.7-1.5,1.3l-5.9,8.5c-0.4,0.6-0.7,1.2-0.7,1.9c0,0.6,0.1,1.2,0.3,1.7c0.2,0.6,0.6,1.1,1,1.5c0.8,0.9,1.9,1.6,3,2.1
		c0.6,0.2,1.2,0.4,1.8,0.4c0.6,0,1.2-0.1,1.7-0.3c0.6-0.3,1.2-0.8,1.5-1.3l5.9-8.5c0.4-0.5,0.6-1.2,0.7-1.8c0-0.6-0.1-1.2-0.4-1.7
		c-0.2-0.6-0.6-1.1-1-1.5C511.2,736.8,510.7,736.4,510.2,736.1L510.2,736.1z"/>
	<path id="path46" class="st0" d="M474.6,727.3l3.7,3.5l14.9-15.8l4.9,4.6l-14.9,15.8l2.9,2.7l-4,4.3l-2.9-2.7l-2.3,2.4
		c-1,1.2-2.3,2.1-3.7,2.7c-1.1,0.4-2.2,0.6-3.3,0.4c-1.1-0.2-2.1-0.6-3-1.2c-0.9-0.6-1.8-1.3-2.6-2.1l-2.4-2.2l4.3-4.5l2.4,2.3
		c0.4,0.4,0.9,0.7,1.4,0.9c0.5,0.2,1.1,0.1,1.5-0.4l2.8-3l-3.7-3.5L474.6,727.3z"/>
	<path id="path50" class="st0" d="M470.6,688.2l-22.2,20.8l-3.2-5.9l11.4-10.8l1.7-1.6l-1.2,0.3c-0.4,0.1-0.8,0.2-1.2,0.2
		c-2.5,0.5-5.1,0.9-7.8,1.4c-2.7,0.5-5.3,1-7.8,1.4l-2.8-5.2l11-11.5c0.3-0.3,0.6-0.6,0.8-0.9c0.3-0.3,0.5-0.5,0.8-0.8
		c-0.4,0.1-0.8,0.2-1.2,0.3c-0.4,0.1-0.7,0.2-1.1,0.3l-15.2,3.6l-3.1-6l29.6-7l3,5.6l-12.3,13.3c1.2-0.2,2.5-0.4,3.7-0.6
		s2.4-0.4,3.7-0.6c1.6-0.3,3.4-0.6,5.2-0.9l5.2-0.9L470.6,688.2z"/>
	<path id="path52" class="st0" d="M421.5,646.6l-1.1-3.7l28.2-8.1l1.1,3.7l-2.7,3.7c0.6,0.1,1.1,0.3,1.6,0.6
		c0.6,0.4,1.2,0.8,1.8,1.3c0.6,0.6,1.1,1.2,1.6,1.9c0.5,0.7,0.8,1.4,1,2.2c0.5,1.5,0.7,3.1,0.7,4.7c0,1.2-0.4,2.4-1,3.5
		c-0.7,1-1.6,1.9-2.7,2.5c-1.4,0.8-2.8,1.4-4.4,1.8l-8.8,2.5c-3.4,1-6.2,1-8.3,0c-2.1-1-3.7-3.2-4.7-6.7c-0.3-0.9-0.4-1.8-0.3-2.6
		c0-0.8,0.2-1.6,0.4-2.4c0.2-0.7,0.5-1.4,0.9-2c0.3-0.5,0.7-0.9,1.1-1.3L421.5,646.6z M432.9,646.3c-0.8,0.2-1.6,0.7-2.1,1.3
		c-1.1,1.1-1.7,2.6-1.7,4.1c0,0.7,0,1.3,0.2,2c0.2,0.5,0.4,1.1,0.6,1.6c0.2,0.5,0.5,0.9,0.9,1.2c0.4,0.3,0.8,0.6,1.3,0.6
		c0.6,0.1,1.2,0.1,1.8-0.1l10.9-3.1c0.6-0.1,1.2-0.4,1.6-0.9c0.3-0.3,0.6-0.8,0.7-1.3c0.1-0.5,0.1-1,0.1-1.5
		c-0.1-0.5-0.2-1.1-0.3-1.6c-0.2-0.6-0.5-1.2-0.9-1.8c-0.4-0.6-0.9-1.2-1.5-1.6c-0.6-0.5-1.4-0.8-2.1-1c-0.8-0.2-1.7-0.2-2.5,0
		L432.9,646.3z"/>
	<path id="path54" class="st0" d="M422.3,613.1l0.7,0.8c-0.3,0.7-0.4,1.4-0.4,2.1c0,0.9,0.1,1.8,0.2,2.7c0.1,0.7,0.3,1.3,0.6,1.9
		c0.3,0.7,0.8,1.2,1.3,1.7c1.2,1.2,2.9,1.7,4.6,1.5l17.6-2l0.8,6.7l-29.2,3.4l-0.5-3.9l3.3-3.2c-0.6-0.1-1.1-0.4-1.6-0.7
		c-0.6-0.3-1.1-0.7-1.5-1.2c-0.5-0.5-0.9-1.1-1.2-1.7c-0.3-0.7-0.5-1.4-0.6-2.2c-0.1-0.8-0.1-1.5,0-2.3c0.2-1.1,0.5-2.1,0.9-3.1
		L422.3,613.1z"/>
	<path id="path56" class="st0" d="M440.3,597.3c0-0.6,0-1.1-0.1-1.7c-0.1-0.6-0.3-1.2-0.5-1.7c-0.3-0.5-0.7-1-1.1-1.3
		c-0.6-0.4-1.3-0.6-2-0.6l0.2-6.7c1.5,0,3,0.4,4.4,1.1c1.2,0.6,2.2,1.5,3,2.6c0.8,1.1,1.4,2.4,1.7,3.8c0.4,1.5,0.5,3.1,0.4,4.7
		c-0.1,3.7-1.1,6.6-3,8.7c-1.9,2.1-4.5,3.1-8,3l-9.2-0.3c-3.6-0.1-6.3-1.3-7.9-3.5c-1.8-2.5-2.6-5.6-2.3-8.7c0-1.7,0.3-3.3,0.8-4.9
		c0.4-1.4,1.2-2.7,2.1-3.8c0.9-1,2.1-1.9,3.4-2.4c1.5-0.6,3.1-0.8,4.7-0.7l6.2,0.2l-0.6,17.3l3.6,0.1c0.7,0.1,1.3-0.1,1.9-0.4
		c0.5-0.3,0.9-0.7,1.2-1.2c0.3-0.5,0.6-1.1,0.7-1.7C440.1,598.6,440.2,597.9,440.3,597.3L440.3,597.3z M427.1,602.1l0.4-10.6l-1.2,0
		c-0.7,0-1.3,0.1-1.9,0.4c-0.5,0.3-1,0.8-1.3,1.3c-0.3,0.5-0.6,1.1-0.8,1.7c-0.2,0.6-0.3,1.2-0.3,1.8c0,0.6,0,1.2,0.2,1.8
		c0.1,0.6,0.3,1.2,0.7,1.7c0.3,0.5,0.7,0.9,1.2,1.3c0.6,0.4,1.2,0.6,1.9,0.6L427.1,602.1z"/>
	<path id="path58" class="st0" d="M451.6,560.1l-2,6.4L412,554.6l1.9-6.4l21.1,6.7c-0.6-1-1.2-2-1.7-2.9c-0.5-0.9-1.1-1.9-1.7-2.9
		c-0.8-1.3-1.6-2.6-2.4-4c-0.8-1.4-1.6-2.8-2.5-4.1l2.5-8l8,13.5l4.6-1.3l4.6-1.3c0.8-0.2,1.7-0.5,2.7-0.7l2.9-0.8l2.9-0.8l2.6-0.8
		l-2.4,7.7l-15.1,3.6c0.3,0.4,0.5,0.8,0.7,1.2l0.7,1.1l0.9,1.6c0.3,0.5,0.6,1,0.9,1.6L451.6,560.1z"/>
	<path id="path60" class="st0" d="M464.3,529.8c-1.7,3.3-3.9,5.4-6.5,6.5c-2.6,1.1-5.4,0.8-8.5-0.8l-8.1-4.3c-3.2-1.7-5-3.9-5.6-6.6
		s0-5.7,1.7-9c1.7-3.3,3.9-5.4,6.5-6.5c2.6-1.1,5.4-0.8,8.6,0.9l8.1,4.3c3.1,1.6,4.9,3.8,5.5,6.5C466.6,523.6,466,526.6,464.3,529.8
		L464.3,529.8z M459,527c0.3-0.5,0.5-1.1,0.7-1.7c0.2-0.6,0.2-1.2,0.2-1.8c0-0.6-0.2-1.2-0.5-1.7c-0.3-0.6-0.8-1-1.4-1.3l-9.1-4.8
		c-0.6-0.4-1.3-0.5-2-0.5c-0.6,0-1.2,0.2-1.7,0.5c-0.5,0.3-1,0.7-1.4,1.2c-0.4,0.5-0.7,1-1,1.5c-0.3,0.6-0.5,1.1-0.7,1.7
		c-0.2,0.6-0.2,1.2-0.2,1.8c0,0.6,0.2,1.2,0.5,1.7c0.4,0.6,0.9,1,1.5,1.3l9.1,4.8c0.6,0.3,1.2,0.5,1.9,0.4c0.6-0.1,1.1-0.2,1.6-0.5
		c0.5-0.3,1-0.7,1.4-1.2C458.3,528.1,458.7,527.6,459,527L459,527z"/>
	<path id="path62" class="st0" d="M467.4,506.2c1.1,0.2,2.2,0.2,3.3-0.1c1.3-0.4,2.4-1.2,3.1-2.3c0.3-0.5,0.7-0.9,0.9-1.5
		c0.2-0.5,0.4-1,0.5-1.5c0.1-0.5,0-1-0.1-1.4c-0.1-0.5-0.4-0.9-0.8-1.1l-0.5-0.3c-0.3-0.2-0.7-0.4-1.1-0.3c-0.4,0.1-0.9,0.2-1.3,0.4
		c-0.5,0.3-0.9,0.6-1.4,0.9c-0.5,0.4-0.9,0.8-1.4,1.2c-0.9,0.9-1.8,1.6-2.7,2.4c-1,0.8-2.1,1.4-3.3,1.8c-1.2,0.4-2.5,0.6-3.7,0.4
		c-1.5-0.3-2.9-0.9-4.1-1.9c-1.1-0.8-2-1.9-2.7-3.1c-0.5-1.1-0.8-2.3-0.8-3.5c0.1-1.3,0.3-2.5,0.9-3.7c0.6-1.3,1.3-2.6,2.2-3.7
		c1.3-1.7,2.9-3.1,4.8-4.3c1.8-1.1,4-1.6,6.1-1.2c-0.1,1.3-0.1,2.2-0.1,3c0,0.8,0,1.7,0,3c-1,0-2.1,0.3-3,0.8
		c-1.1,0.6-2.1,1.4-2.9,2.4c-0.3,0.4-0.5,0.8-0.7,1.2c-0.2,0.4-0.4,0.9-0.5,1.3c-0.1,0.4-0.1,0.9,0,1.3c0.1,0.4,0.3,0.8,0.6,1
		l0.3,0.2c0.7,0.5,1.6,0.5,2.3,0c1-0.6,1.9-1.3,2.7-2.1c0.9-0.8,1.8-1.6,2.8-2.5c1-0.8,2.1-1.4,3.2-1.9c1.2-0.4,2.5-0.5,3.8-0.3
		c1.6,0.3,3.2,1.1,4.4,2.2c1.2,0.8,2.1,2,2.7,3.3c0.5,1.2,0.8,2.4,0.7,3.7c-0.1,1.3-0.4,2.7-0.9,3.9c-0.6,1.4-1.4,2.6-2.3,3.8
		c-0.7,0.9-1.5,1.7-2.3,2.5c-0.8,0.8-1.8,1.5-2.8,2c-1,0.5-2,0.9-3.1,1.1c-1.1,0.2-2.2,0.2-3.3-0.1L467.4,506.2z"/>
	<path id="path64" class="st0" d="M496.4,488c-2.7,2.5-5.5,3.8-8.2,4s-5.4-1-7.7-3.6l-6.2-6.8c-2.4-2.7-3.4-5.4-3-8.1
		c0.4-2.7,2-5.4,4.6-7.9c2.7-2.5,5.5-3.8,8.2-3.9c2.8-0.1,5.4,1.1,7.8,3.7l6.2,6.8c2.4,2.6,3.4,5.2,3,8
		C500.6,483,499.1,485.6,496.4,488L496.4,488z M492.3,483.6c0.5-0.4,0.9-0.9,1.2-1.4c0.3-0.5,0.6-1,0.8-1.6c0.2-0.6,0.2-1.2,0.1-1.7
		c-0.1-0.6-0.4-1.2-0.9-1.7l-7-7.6c-0.4-0.5-1-0.9-1.7-1.1c-0.6-0.2-1.2-0.2-1.8-0.1c-0.6,0.1-1.2,0.3-1.7,0.6
		c-0.5,0.3-1,0.7-1.4,1.1c-0.5,0.4-0.9,0.9-1.2,1.4c-0.4,0.5-0.6,1.1-0.8,1.7c-0.2,0.6-0.2,1.2-0.1,1.8c0.2,0.7,0.5,1.3,1,1.8l7,7.6
		c0.4,0.5,1,0.9,1.6,1.1c0.6,0.1,1.2,0.1,1.7,0c0.6-0.1,1.2-0.4,1.7-0.7C491.4,484.4,491.9,484,492.3,483.6L492.3,483.6z"/>
	<path id="path66" class="st0" d="M514,473.3l-24.5-19.1l6-3.9l10.5,8.5c0.6,0.5,1.2,1,1.8,1.5c0.6,0.5,1.2,1,1.8,1.4l0.6,0.4
		l0.2,0.2l0.2,0.2l0.6,0.5c-0.1-0.3-0.2-0.6-0.3-1c-0.1-0.4-0.2-0.7-0.3-1c-0.2-0.8-0.4-1.5-0.6-2.3s-0.4-1.5-0.6-2.2l0,0
		c-0.3-1-0.6-2-0.8-3.1c-0.3-1.1-0.6-2.1-0.9-3.2c-0.3-1.1-0.6-2.2-0.9-3.4s-0.6-2.3-0.9-3.3l6-3.9l7.5,30.2L514,473.3z"/>
	<path id="path68" class="st0" d="M535.7,428.9l3.6-1.5l11.6,27l-3.6,1.5l-4-2.2c0,0.6-0.2,1.2-0.4,1.7c-0.3,0.7-0.6,1.3-1.1,1.9
		c-0.5,0.7-1,1.3-1.6,1.8c-0.6,0.6-1.3,1-2.1,1.3c-1.4,0.7-3,1.1-4.5,1.3c-1.2,0.1-2.4-0.1-3.6-0.6c-1.1-0.5-2.1-1.4-2.8-2.4
		c-0.9-1.3-1.7-2.6-2.3-4.1l-3.6-8.4c-1.4-3.3-1.8-6-1.1-8.3s2.7-4.1,6-5.5c0.8-0.4,1.7-0.6,2.6-0.7c0.8-0.1,1.6-0.1,2.4,0.1
		c0.7,0.1,1.4,0.3,2,0.6c0.5,0.3,1,0.6,1.4,1L535.7,428.9z M537.5,440.3c-0.3-0.8-0.8-1.5-1.5-2c-0.6-0.5-1.4-0.8-2.1-1
		c-1.4-0.4-2.8-0.3-4.2,0.3c-0.5,0.2-1,0.5-1.5,0.8c-0.4,0.3-0.8,0.6-1.1,1c-0.3,0.4-0.4,0.9-0.5,1.4c0,0.6,0.1,1.2,0.4,1.8
		l4.5,10.4c0.2,0.6,0.5,1.1,1,1.5c0.4,0.3,0.9,0.5,1.3,0.5c0.5,0,1,0,1.5-0.1c0.5-0.1,1.1-0.3,1.6-0.5c1.3-0.6,2.4-1.6,3.1-2.8
		c0.4-0.7,0.6-1.4,0.7-2.2c0.1-0.8,0-1.7-0.4-2.5L537.5,440.3z"/>
	<path id="path70" class="st0" d="M608.6,443.4l0.3,3.7l-27.5-8.5l-2.3,10.7l-1.4,0.1l-3.2-11.9c-2.9-1.4-5.5-3.3-7.6-5.6
		c-2.2-2.5-3.7-5.5-4.2-8.8c-0.4-3.5-3.2-6.1-6.7-6.4l-0.1-1c0,0,9.3-9.5,16.5-1.7c1.5,1.7,3.2,3.3,4.9,4.8c0,0,17.6,13.9,20.6,16.3
		L608.6,443.4z"/>
	<g>
		<path class="st0" d="M462.3,724.8l-7.6,2.6l-2.4-3l5.9-4.8l-5.1-6.3l4.5-3.6l5.1,6.3l11.8-9.6c1.2-1,1.4-2.1,0.4-3.4
			c-0.4-0.4-0.9-1-1.7-1.7c-0.8-0.7-1.8-1.5-3.2-2.5l4.5-3.7c0.4,0.2,0.9,0.5,1.5,0.9c0.5,0.4,1.1,0.8,1.6,1.3
			c0.5,0.4,1,0.9,1.4,1.3c0.4,0.4,0.8,0.8,1,1.1c0.8,0.9,1.4,1.9,1.8,2.8c0.4,0.9,0.7,1.9,0.7,2.8c0,1-0.2,1.9-0.8,2.9
			c-0.5,1-1.4,1.9-2.5,2.9l-12.2,9.9l2,2.5l-4.5,3.6L462.3,724.8z"/>
	</g>
</g>
</svg>
