<?xml version="1.0" encoding="UTF-8" standalone="no"?>
<svg
   xmlns:dc="http://purl.org/dc/elements/1.1/"
   xmlns:cc="http://creativecommons.org/ns#"
   xmlns:rdf="http://www.w3.org/1999/02/22-rdf-syntax-ns#"
   xmlns:svg="http://www.w3.org/2000/svg"
   xmlns="http://www.w3.org/2000/svg"
   xmlns:sodipodi="http://sodipodi.sourceforge.net/DTD/sodipodi-0.dtd"
   xmlns:inkscape="http://www.inkscape.org/namespaces/inkscape"
   version="1.1"
   id="svg2"
   xml:space="preserve"
   width="1122.52"
   height="793.70135"
   viewBox="0 0 1122.52 793.70135"
   sodipodi:docname="flossk_stema.svg"
   inkscape:version="1.0.2 (394de47547, 2021-03-26)"><metadata
     id="metadata8"><rdf:RDF><cc:Work
         rdf:about=""><dc:format>image/svg+xml</dc:format><dc:type
           rdf:resource="http://purl.org/dc/dcmitype/StillImage" /><dc:title></dc:title></cc:Work></rdf:RDF></metadata><defs
     id="defs6"><clipPath
       clipPathUnits="userSpaceOnUse"
       id="clipPath22"><path
         d="M 0,595.276 H 841.89 V 0 H 0 Z"
         id="path20" /></clipPath><clipPath
       clipPathUnits="userSpaceOnUse"
       id="clipPath42"><path
         d="M 0,595.276 H 841.89 V 0 H 0 Z"
         id="path40" /></clipPath><clipPath
       clipPathUnits="userSpaceOnUse"
       id="clipPath70"><path
         d="M 0,595.276 H 841.89 V 0 H 0 Z"
         id="path68" /></clipPath><clipPath
       clipPathUnits="userSpaceOnUse"
       id="clipPath218"><path
         d="m 442.857,258.241 c 0,-39.775 32.242,-72.018 72.017,-72.018 v 0 c 39.773,0 72.018,32.243 72.018,72.018 v 0 c 0,39.773 -32.245,72.017 -72.018,72.017 v 0 c -39.775,0 -72.017,-32.244 -72.017,-72.017"
         id="path216" /></clipPath></defs><sodipodi:namedview
     pagecolor="#ffffff"
     bordercolor="#666666"
     borderopacity="1"
     objecttolerance="10"
     gridtolerance="10"
     guidetolerance="10"
     inkscape:pageopacity="0"
     inkscape:pageshadow="2"
     inkscape:window-width="1920"
     inkscape:window-height="1138"
     id="namedview4"
     showgrid="false"
     inkscape:zoom="0.926041"
     inkscape:cx="561.26001"
     inkscape:cy="412.80496"
     inkscape:window-x="0"
     inkscape:window-y="25"
     inkscape:window-maximized="1"
     inkscape:current-layer="g10" /><g
     id="g10"
     inkscape:groupmode="layer"
     inkscape:label="flossk_brandbook_trembelat"
     transform="matrix(1.3333333,0,0,-1.3333333,0,793.70133)"><g
       id="g1371"
       transform="translate(-75.312614,66.065821)"><g
         id="g64"
         transform="matrix(2.7958593,0,0,2.7958593,-942.75282,-469.47245)"><g
           id="g66"
           clip-path="url(#clipPath70)"><g
             id="g72"
             transform="translate(442.6552,258.3213)"><path
               d="m 0,0 c 0,39.773 32.243,72.018 72.018,72.018 39.774,0 72.017,-32.245 72.017,-72.018 0,-39.774 -32.243,-72.019 -72.017,-72.019 C 32.243,-72.019 0,-39.774 0,0"
               style="fill:#f2e838;fill-opacity:1;fill-rule:nonzero;stroke:none"
               id="path74" /></g><text
             transform="matrix(-0.60233935,0.79823562,0.79824013,0.60232133,453.5433,207.5794)"
             style="font-variant:normal;font-weight:600;font-stretch:normal;font-size:22.1903px;font-family:Alfabeti;-inkscape-font-specification:Alfabeti-DemiBold;writing-mode:lr-tb;fill:#000000;fill-opacity:1;fill-rule:nonzero;stroke:none"
             id="text78"><tspan
               x="0"
               y="0"
               id="tspan76">f</tspan></text><text
             transform="matrix(-0.52094463,0.85358597,0.85359047,0.52093111,449.2244,213.2155)"
             style="font-variant:normal;font-weight:600;font-stretch:normal;font-size:22.1903px;font-family:Alfabeti;-inkscape-font-specification:Alfabeti-DemiBold;writing-mode:lr-tb;fill:#000000;fill-opacity:1;fill-rule:nonzero;stroke:none"
             id="text82"><tspan
               x="0"
               y="0"
               id="tspan80">r</tspan></text><text
             transform="matrix(-0.41752954,0.90865884,0.90866335,0.41751602,444.9122,220.0338)"
             style="font-variant:normal;font-weight:600;font-stretch:normal;font-size:22.1903px;font-family:Alfabeti;-inkscape-font-specification:Alfabeti-DemiBold;writing-mode:lr-tb;fill:#000000;fill-opacity:1;fill-rule:nonzero;stroke:none"
             id="text86"><tspan
               x="0"
               y="0"
               id="tspan84">e</tspan></text><text
             transform="matrix(-0.28745083,0.95779089,0.9577954,0.28744182,440.2933,229.9997)"
             style="font-variant:normal;font-weight:600;font-stretch:normal;font-size:22.1902px;font-family:Alfabeti;-inkscape-font-specification:Alfabeti-DemiBold;writing-mode:lr-tb;fill:#000000;fill-opacity:1;fill-rule:nonzero;stroke:none"
             id="text90"><tspan
               x="0"
               y="0"
               id="tspan88">e</tspan></text><text
             transform="matrix(-0.11829097,0.99297447,0.99297898,0.11828646,436.1874,246.1502)"
             style="font-variant:normal;font-weight:600;font-stretch:normal;font-size:22.1902px;font-family:Alfabeti;-inkscape-font-specification:Alfabeti-DemiBold;writing-mode:lr-tb;fill:#000000;fill-opacity:1;fill-rule:nonzero;stroke:none"
             id="text94"><tspan
               x="0"
               y="0"
               id="tspan92">l</tspan></text><text
             transform="matrix(-0.05067999,0.99871044,0.99871494,0.05067549,435.5578,251.3104)"
             style="font-variant:normal;font-weight:600;font-stretch:normal;font-size:22.1902px;font-family:Alfabeti;-inkscape-font-specification:Alfabeti-DemiBold;writing-mode:lr-tb;fill:#000000;fill-opacity:1;fill-rule:nonzero;stroke:none"
             id="text98"><tspan
               x="0"
               y="0"
               id="tspan96">i</tspan></text><text
             transform="matrix(0.05598866,0.9984269,0.9984314,-0.05598866,435.0971,256.7256)"
             style="font-variant:normal;font-weight:600;font-stretch:normal;font-size:22.1902px;font-family:Alfabeti;-inkscape-font-specification:Alfabeti-DemiBold;writing-mode:lr-tb;fill:#000000;fill-opacity:1;fill-rule:nonzero;stroke:none"
             id="text102"><tspan
               x="0"
               y="0"
               id="tspan100">b</tspan></text><text
             transform="matrix(0.18064752,0.9835434,0.9835479,-0.18064752,435.8093,268.2509)"
             style="font-variant:normal;font-weight:600;font-stretch:normal;font-size:22.1902px;font-family:Alfabeti;-inkscape-font-specification:Alfabeti-DemiBold;writing-mode:lr-tb;fill:#000000;fill-opacity:1;fill-rule:nonzero;stroke:none"
             id="text106"><tspan
               x="0"
               y="0"
               id="tspan104">r</tspan></text><text
             transform="matrix(0.29369283,0.95589534,0.95589985,-0.29368833,437.1382,276.1959)"
             style="font-variant:normal;font-weight:600;font-stretch:normal;font-size:22.1902px;font-family:Alfabeti;-inkscape-font-specification:Alfabeti-DemiBold;writing-mode:lr-tb;fill:#000000;fill-opacity:1;fill-rule:nonzero;stroke:none"
             id="text110"><tspan
               x="0"
               y="0"
               id="tspan108">e</tspan></text><text
             transform="matrix(0.48604119,0.87393139,0.8739359,-0.48603218,442.4894,291.8495)"
             style="font-variant:normal;font-weight:600;font-stretch:normal;font-size:22.1903px;font-family:Alfabeti;-inkscape-font-specification:Alfabeti-DemiBold;writing-mode:lr-tb;fill:#000000;fill-opacity:1;fill-rule:nonzero;stroke:none"
             id="text114"><tspan
               x="0"
               y="0"
               id="tspan112">o</tspan></text><text
             transform="matrix(0.60694533,0.79473908,0.79474359,-0.60693181,447.8561,301.6181)"
             style="font-variant:normal;font-weight:600;font-stretch:normal;font-size:22.1903px;font-family:Alfabeti;-inkscape-font-specification:Alfabeti-DemiBold;writing-mode:lr-tb;fill:#000000;fill-opacity:1;fill-rule:nonzero;stroke:none"
             id="text118"><tspan
               x="0"
               y="0"
               id="tspan116">p</tspan></text><text
             transform="matrix(0.71430713,0.69982784,0.69983235,-0.71428911,454.9528,310.9262)"
             style="font-variant:normal;font-weight:600;font-stretch:normal;font-size:22.1903px;font-family:Alfabeti;-inkscape-font-specification:Alfabeti-DemiBold;writing-mode:lr-tb;fill:#000000;fill-opacity:1;fill-rule:nonzero;stroke:none"
             id="text122"><tspan
               x="0"
               y="0"
               id="tspan120">e</tspan></text><text
             transform="matrix(0.79823036,0.60234779,0.6023523,-0.79821233,462.7578,318.5582)"
             style="font-variant:normal;font-weight:600;font-stretch:normal;font-size:22.1903px;font-family:Alfabeti;-inkscape-font-specification:Alfabeti-DemiBold;writing-mode:lr-tb;fill:#000000;fill-opacity:1;fill-rule:nonzero;stroke:none"
             id="text126"><tspan
               x="0"
               y="0"
               id="tspan124">n</tspan></text><text
             transform="matrix(0.90981579,0.41500781,0.41501231,-0.90979326,477.1126,328.4318)"
             style="font-variant:normal;font-weight:600;font-stretch:normal;font-size:22.1904px;font-family:Alfabeti;-inkscape-font-specification:Alfabeti-DemiBold;writing-mode:lr-tb;fill:#000000;fill-opacity:1;fill-rule:nonzero;stroke:none"
             id="text130"><tspan
               x="0"
               y="0"
               id="tspan128">s</tspan></text><text
             transform="matrix(0.95691059,0.29038272,0.29038272,-0.95688806,486.0404,332.5893)"
             style="font-variant:normal;font-weight:600;font-stretch:normal;font-size:22.1904px;font-family:Alfabeti;-inkscape-font-specification:Alfabeti-DemiBold;writing-mode:lr-tb;fill:#000000;fill-opacity:1;fill-rule:nonzero;stroke:none"
             id="text134"><tspan
               x="0"
               y="0"
               id="tspan132">o</tspan></text><text
             transform="matrix(0.98882684,0.14906421,0.14906872,-0.98880431,496.6755,335.8829)"
             style="font-variant:normal;font-weight:600;font-stretch:normal;font-size:22.1904px;font-family:Alfabeti;-inkscape-font-specification:Alfabeti-DemiBold;writing-mode:lr-tb;fill:#000000;fill-opacity:1;fill-rule:nonzero;stroke:none"
             id="text138"><tspan
               x="0"
               y="0"
               id="tspan136">u</tspan></text><text
             transform="matrix(0.99977058,0.02141467,0.02141918,-0.99974805,508.4134,337.573)"
             style="font-variant:normal;font-weight:600;font-stretch:normal;font-size:22.1904px;font-family:Alfabeti;-inkscape-font-specification:Alfabeti-DemiBold;writing-mode:lr-tb;fill:#000000;fill-opacity:1;fill-rule:nonzero;stroke:none"
             id="text142"><tspan
               x="0"
               y="0"
               id="tspan140">r</tspan></text><text
             transform="matrix(0.99585555,-0.09095347,-0.09094896,-0.99582852,516.2623,337.8685)"
             style="font-variant:normal;font-weight:600;font-stretch:normal;font-size:22.1905px;font-family:Alfabeti;-inkscape-font-specification:Alfabeti-DemiBold;writing-mode:lr-tb;fill:#000000;fill-opacity:1;fill-rule:nonzero;stroke:none"
             id="text146"><tspan
               x="0"
               y="0"
               id="tspan144">c</tspan></text><text
             transform="matrix(0.97531967,-0.22079751,-0.22079751,-0.97529263,526.6249,336.9877)"
             style="font-variant:normal;font-weight:600;font-stretch:normal;font-size:22.1905px;font-family:Alfabeti;-inkscape-font-specification:Alfabeti-DemiBold;writing-mode:lr-tb;fill:#000000;fill-opacity:1;fill-rule:nonzero;stroke:none"
             id="text150"><tspan
               x="0"
               y="0"
               id="tspan148">e</tspan></text><text
             transform="matrix(0.91159355,-0.4110927,-0.4110927,-0.91157101,542.6701,332.7698)"
             style="font-variant:normal;font-weight:600;font-stretch:normal;font-size:22.1904px;font-family:Alfabeti;-inkscape-font-specification:Alfabeti-DemiBold;writing-mode:lr-tb;fill:#000000;fill-opacity:1;fill-rule:nonzero;stroke:none"
             id="text154"><tspan
               x="0"
               y="0"
               id="tspan152">s</tspan></text><text
             transform="matrix(0.84929428,-0.52791971,-0.52791971,-0.84927626,551.6503,328.8064)"
             style="font-variant:normal;font-weight:600;font-stretch:normal;font-size:22.1903px;font-family:Alfabeti;-inkscape-font-specification:Alfabeti-DemiBold;writing-mode:lr-tb;fill:#000000;fill-opacity:1;fill-rule:nonzero;stroke:none"
             id="text158"><tspan
               x="0"
               y="0"
               id="tspan156">o</tspan></text><text
             transform="matrix(0.78232195,-0.62286977,-0.62287428,-0.78230392,561.1511,322.7871)"
             style="font-variant:normal;font-weight:600;font-stretch:normal;font-size:22.1904px;font-family:Alfabeti;-inkscape-font-specification:Alfabeti-DemiBold;writing-mode:lr-tb;fill:#000000;fill-opacity:1;fill-rule:nonzero;stroke:none"
             id="text162"><tspan
               x="0"
               y="0"
               id="tspan160">f</tspan></text><text
             transform="matrix(0.71974947,-0.69422938,-0.69423389,-0.71973145,566.7582,318.3662)"
             style="font-variant:normal;font-weight:600;font-stretch:normal;font-size:22.1904px;font-family:Alfabeti;-inkscape-font-specification:Alfabeti-DemiBold;writing-mode:lr-tb;fill:#000000;fill-opacity:1;fill-rule:nonzero;stroke:none"
             id="text166"><tspan
               x="0"
               y="0"
               id="tspan164">t</tspan></text><text
             transform="matrix(0.61115388,-0.7915073,-0.7915118,-0.61113585,572.5307,313.2489)"
             style="font-variant:normal;font-weight:600;font-stretch:normal;font-size:22.1903px;font-family:Alfabeti;-inkscape-font-specification:Alfabeti-DemiBold;writing-mode:lr-tb;fill:#000000;fill-opacity:1;fill-rule:nonzero;stroke:none"
             id="text170"><tspan
               x="0"
               y="0"
               id="tspan168">w</tspan></text><text
             transform="matrix(0.47062543,-0.8823286,-0.88233311,-0.47061191,581.9295,300.8842)"
             style="font-variant:normal;font-weight:600;font-stretch:normal;font-size:22.1903px;font-family:Alfabeti;-inkscape-font-specification:Alfabeti-DemiBold;writing-mode:lr-tb;fill:#000000;fill-opacity:1;fill-rule:nonzero;stroke:none"
             id="text174"><tspan
               x="0"
               y="0"
               id="tspan172">a</tspan></text><text
             transform="matrix(0.35528667,-0.93475288,-0.93475739,-0.35527766,587.2983,290.6809)"
             style="font-variant:normal;font-weight:600;font-stretch:normal;font-size:22.1903px;font-family:Alfabeti;-inkscape-font-specification:Alfabeti-DemiBold;writing-mode:lr-tb;fill:#000000;fill-opacity:1;fill-rule:nonzero;stroke:none"
             id="text178"><tspan
               x="0"
               y="0"
               id="tspan176">r</tspan></text><text
             transform="matrix(0.24295444,-0.9700377,-0.9700377,-0.24294994,590.2778,283.2072)"
             style="font-variant:normal;font-weight:600;font-stretch:normal;font-size:22.1902px;font-family:Alfabeti;-inkscape-font-specification:Alfabeti-DemiBold;writing-mode:lr-tb;fill:#000000;fill-opacity:1;fill-rule:nonzero;stroke:none"
             id="text182"><tspan
               x="0"
               y="0"
               id="tspan180">e</tspan></text><text
             transform="matrix(0.0330641,-0.99944873,-0.99945323,-0.03305959,593.8012,267.0258)"
             style="font-variant:normal;font-weight:600;font-stretch:normal;font-size:22.1902px;font-family:Alfabeti;-inkscape-font-specification:Alfabeti-DemiBold;writing-mode:lr-tb;fill:#000000;fill-opacity:1;fill-rule:nonzero;stroke:none"
             id="text186"><tspan
               x="0"
               y="0"
               id="tspan184">k</tspan></text><text
             transform="matrix(-0.10840387,-0.99410243,-0.99410694,0.10840387,594.2057,255.5427)"
             style="font-variant:normal;font-weight:600;font-stretch:normal;font-size:22.1902px;font-family:Alfabeti;-inkscape-font-specification:Alfabeti-DemiBold;writing-mode:lr-tb;fill:#000000;fill-opacity:1;fill-rule:nonzero;stroke:none"
             id="text190"><tspan
               x="0"
               y="0"
               id="tspan188">o</tspan></text><text
             transform="matrix(-0.23787046,-0.97129238,-0.97129689,0.23786596,592.9793,244.4148)"
             style="font-variant:normal;font-weight:600;font-stretch:normal;font-size:22.1902px;font-family:Alfabeti;-inkscape-font-specification:Alfabeti-DemiBold;writing-mode:lr-tb;fill:#000000;fill-opacity:1;fill-rule:nonzero;stroke:none"
             id="text194"><tspan
               x="0"
               y="0"
               id="tspan192">s</tspan></text><text
             transform="matrix(-0.36347533,-0.93159932,-0.93160382,0.36346632,590.7134,234.8386)"
             style="font-variant:normal;font-weight:600;font-stretch:normal;font-size:22.1902px;font-family:Alfabeti;-inkscape-font-specification:Alfabeti-DemiBold;writing-mode:lr-tb;fill:#000000;fill-opacity:1;fill-rule:nonzero;stroke:none"
             id="text198"><tspan
               x="0"
               y="0"
               id="tspan196">o</tspan></text><text
             transform="matrix(-0.48206821,-0.87612918,-0.87613369,0.4820592,586.7459,224.6365)"
             style="font-variant:normal;font-weight:600;font-stretch:normal;font-size:22.1902px;font-family:Alfabeti;-inkscape-font-specification:Alfabeti-DemiBold;writing-mode:lr-tb;fill:#000000;fill-opacity:1;fill-rule:nonzero;stroke:none"
             id="text202"><tspan
               x="0"
               y="0"
               id="tspan200">v</tspan></text><text
             transform="matrix(-0.59488284,-0.80380791,-0.80381242,0.59487383,582.0707,215.9416)"
             style="font-variant:normal;font-weight:600;font-stretch:normal;font-size:22.1903px;font-family:Alfabeti;-inkscape-font-specification:Alfabeti-DemiBold;writing-mode:lr-tb;fill:#000000;fill-opacity:1;fill-rule:nonzero;stroke:none"
             id="text206"><tspan
               x="0"
               y="0"
               id="tspan204">a</tspan></text><g
             id="g208"
             transform="translate(508.1518,152.1504)"><path
               d="m 0,0 c 0,0 10.208,19.415 10.224,18.389 0.32,-18.562 8.551,15.429 8.551,15.429 l 1.923,-5.761 c 0,0 1.419,21.115 3.498,22.235 l 1.351,0.915 4.41,-2.676 c 0,1.282 0.64,1.12 1.599,1.921 0.958,0.8 2.241,5.279 2.241,5.279 0,0 -0.318,-3.039 0.477,-2.079 0.804,0.96 1.762,3.679 1.762,3.679 l 0.802,-0.961 c 1.92,2.722 -1.443,11.686 -1.443,11.686 l -50.886,34.241 C -29.25,84.055 -0.286,48.691 -0.286,45.975 c 0,-2.723 -5.902,-13.542 -5.902,-13.542 2.081,0 3.201,2.428 2.561,1.466 -0.641,-0.961 -2.877,-5.52 -2.877,-5.52 L -0.747,33.5 -9.705,8.217 c 0,0 10.879,21.922 10.239,13.439 C -0.105,13.176 -11.17,0.684 -7.329,2.126 l 1.783,-0.634 1.494,1.495 -0.216,-1.921 0.962,-0.531 z"
               style="fill:#000000;fill-opacity:1;fill-rule:nonzero;stroke:none"
               id="path210" /></g></g></g><g
         id="g212"
         transform="matrix(2.7958593,0,0,2.7958593,-942.75282,-469.47245)"><g
           id="g214"
           clip-path="url(#clipPath218)"><g
             id="g220"
             transform="translate(493.0961,290.1533)"><path
               d="m 0,0 c 0,0 11.151,11.469 27.708,7.369 16.8,-4.16 19.498,-16.491 20.137,-27.531 0.296,-5.052 11.202,-6.083 15.844,-22.084 4.64,-16.004 -8.96,-25.763 -13.284,-27.683 0,0 3.363,-8.964 1.444,-11.685 l -0.802,0.962 c 0,0 -0.959,-2.721 -1.762,-3.68 -0.795,-0.96 -0.477,2.079 -0.477,2.079 0,0 -1.282,-4.479 -2.242,-5.279 -0.96,-0.8 -1.599,-0.641 -1.599,-1.92 0,-1.279 1.441,-9.121 2.719,-10.242 1.282,-1.12 6.401,0.639 9.124,-2.4 0,0 -5.281,1.763 -7.684,0.323 -2.395,-1.444 -3.675,-4.642 -3.675,-6.562 0,0 -1.122,3.037 0.477,6.562 1.6,3.517 -4.639,15.201 -6.719,14.079 -2.078,-1.119 -2.4,-14.402 -2.4,-14.402 l -2.082,2.723 c 0,0 -2.395,-8.484 -3.041,-9.282 -0.638,-0.8 0,6.561 0,6.561 0,0 -20.159,-32.323 -24.003,-33.763 -3.84,-1.442 11.469,19.574 12.111,28.053 0.64,8.484 -9.814,-12.587 -9.814,-12.587 l 8.269,22.296 -5.283,-4.64 c 0,0 1.92,4.479 2.557,5.439 0.642,0.963 -3.765,-6.977 -5.845,-6.977 0,0 5.049,9.541 5.049,12.262 0,2.72 -28.965,38.083 -15.206,56.323 12.803,16.965 3.703,16.814 3.703,16.814 z"
               style="fill:#000000;fill-opacity:1;fill-rule:nonzero;stroke:none"
               id="path222" /></g><g
             id="g224"
             transform="translate(499.6591,213.1846)"><path
               d="m 0,0 c 0,0 -3.199,-7.363 -2.774,-15.685 0.118,-2.338 -2.134,-9.386 -4.691,-9.386 -2.565,0 -6.831,-2.773 -6.831,-2.773 0,0 5.971,2.132 7.465,1.279 1.497,-0.852 1.07,-7.254 1.07,-7.254 0,0 1.067,6.187 1.707,6.616 0.64,0.425 5.76,-0.214 5.76,-0.214 0,0 -4.907,1.917 -4.907,3.412 0,1.494 2.452,5.974 4.8,8.318 2.344,2.348 5.654,8.323 6.721,10.883"
               style="fill:#000000;fill-opacity:1;fill-rule:nonzero;stroke:none"
               id="path226" /></g><g
             id="g228"
             transform="translate(455.1723,279.4316)"><path
               d="m 0,0 c 0,0 21.123,13.44 40.006,10.24 l -1.28,-1.6 2.879,-0.957 -4.268,-0.428 c 0,0 5.548,-1.815 6.827,-2.454 1.28,-0.641 5.759,-7.04 5.759,-7.04 0,0 -5.279,-6.015 -10.559,-7.362 C 33.923,-10.986 21.869,-9.922 16,-5.762 11.871,-2.834 -0.962,-1.494 0,0"
               style="fill:#ffffff;fill-opacity:1;fill-rule:nonzero;stroke:none"
               id="path230" /></g><g
             id="g232"
             transform="translate(456.0741,279.6475)"><path
               d="m 0,0 c 3.446,2.185 7.185,3.938 10.943,5.52 5.351,2.252 10.954,3.843 16.726,4.5 2.548,0.289 5.102,0.286 7.653,0.106 0.15,-0.01 2.809,-0.404 2.723,-0.516 -0.383,-0.475 -0.768,-0.955 -1.149,-1.433 0.015,-0.003 0.027,-0.008 0.039,-0.012 0.48,-0.161 0.961,-0.319 1.443,-0.481 0.325,-0.111 0.658,-0.22 0.99,-0.33 0.593,-0.201 2.906,0.446 1.755,0.33 C 39.822,7.556 38.527,7.427 37.228,7.296 36.874,7.262 35.66,6.741 35.55,6.776 37.716,6.068 39.893,5.359 42.002,4.491 43.96,3.683 45.454,0.92 46.656,-0.704 c 0.479,-0.646 0.943,-1.293 1.405,-1.946 0.143,-0.203 -1.666,-1.787 -1.82,-1.937 -3.561,-3.401 -7.395,-5.464 -12.41,-5.54 -3.781,-0.058 -7.589,0.515 -11.234,1.489 -3.396,0.906 -5.973,2.924 -9.151,4.211 -1.384,0.561 -13.803,3.368 -13.419,4.46 -0.082,-0.228 -1.705,-0.07 -1.857,-0.498 -0.435,-1.248 9.184,-3.128 10.084,-3.377 2.668,-0.735 4.827,-1.773 7.17,-3.173 2.666,-1.589 5.849,-2.36 8.862,-2.942 9.985,-1.92 18.722,-0.055 25.641,7.717 0.004,0.01 0.016,0.021 0.027,0.032 -1.906,2.713 -3.875,6.345 -7.075,7.583 -1.798,0.698 -3.639,1.295 -5.472,1.896 -1.77,-0.404 -2.231,-0.556 -1.386,-0.454 0.49,0.048 0.98,0.1 1.468,0.147 0.807,0.08 1.617,0.164 2.424,0.243 0.352,0.033 1.569,0.553 1.681,0.516 -0.814,0.272 -1.622,0.541 -2.433,0.809 -0.763,0.256 0.538,1.322 0.869,1.741 -0.014,10e-4 -0.026,0.006 -0.038,0.01 C 25.923,12.455 10.046,7.053 -1.801,-0.437 -1.515,-0.25 -0.475,-0.295 0,0"
               style="fill:#000000;fill-opacity:1;fill-rule:nonzero;stroke:none"
               id="path234" /></g><g
             id="g236"
             transform="translate(454.2831,279.1699)"><path
               d="m 0,0 c 3.168,-0.005 6.338,-0.175 9.492,-0.47 4.101,-0.383 7.448,-1.771 11.319,-2.896 6.619,-1.92 16.14,-2.472 22.102,1.763 C 42.651,-1.79 41.564,-1.719 41.115,-2.039 34.549,-6.701 24.889,-3.45 18.103,-1.145 13.056,0.568 7.064,0.511 1.776,0.521 1.214,0.523 0.351,0 0,0"
               style="fill:#000000;fill-opacity:1;fill-rule:nonzero;stroke:none"
               id="path238" /></g><g
             id="g240"
             transform="translate(493.2885,279.3437)"><path
               d="m 0,0 c 1.773,-0.723 3.147,-2.376 3.199,-4.319 0,0.016 1.864,0.224 1.854,0.497 C 5.005,-1.878 3.625,-0.226 1.854,0.498 1.617,0.595 1.135,0.395 0.905,0.332 0.799,0.303 0.066,-0.027 0,0"
               style="fill:#000000;fill-opacity:1;fill-rule:nonzero;stroke:none"
               id="path242" /></g><g
             id="g244"
             transform="translate(507.5526,288.0713)"><path
               d="M 0,0 C 0,0 3.65,4.599 7.17,1.823 10.689,-0.949 9.923,-4.586 9.923,-4.586 9.923,-4.586 1.492,-7.253 0,0"
               style="fill:#ffffff;fill-opacity:1;fill-rule:nonzero;stroke:none"
               id="path246" /></g><g
             id="g248"
             transform="translate(514.1024,283.5449)"><path
               d="M 0,0 C 1.261,0 2.362,0.229 2.884,0.364 2.895,0.483 2.906,0.638 2.906,0.825 2.897,1.973 2.58,4.122 0.283,5.933 -0.449,6.508 -1.135,6.705 -1.804,6.709 -2.91,6.714 -4.004,6.109 -4.822,5.466 -5.358,5.04 -5.759,4.622 -5.97,4.388 -5.084,0.725 -2.383,0.041 0,0 M -7.075,4.42 -6.552,4.526 -6.133,4.195 -6.552,4.526 -7.075,4.42 -7.127,4.669 -6.97,4.861 c 0.048,0.021 2.193,2.868 5.166,2.916 C -0.909,7.779 0.048,7.486 0.949,6.771 3.558,4.721 3.983,2.166 3.977,0.823 3.977,0.234 3.9,-0.141 3.894,-0.168 L 3.828,-0.475 3.53,-0.568 c -0.032,-0.01 -1.582,-0.501 -3.531,-0.505 -0.049,0 -0.098,-0.001 -0.145,-0.001 -2.599,0.001 -6.048,1.1 -6.929,5.494"
               style="fill:#000000;fill-opacity:1;fill-rule:nonzero;stroke:none"
               id="path250" /></g><g
             id="g252"
             transform="translate(508.3534,288.7783)"><path
               d="M 0,0 C 0.88,1.05 2.609,1.051 3.861,0.001 5.113,-1.049 5.415,-2.751 4.534,-3.801 3.654,-4.852 1.925,-4.852 0.673,-3.802 -0.579,-2.753 -0.88,-1.051 0,0"
               style="fill:#000000;fill-opacity:1;fill-rule:nonzero;stroke:none"
               id="path254" /></g><g
             id="g256"
             transform="translate(511.4799,288.7266)"><path
               d="M 0,0 C 0.291,0.346 0.861,0.345 1.273,-0.002 1.686,-0.349 1.786,-0.911 1.495,-1.257 1.204,-1.603 0.634,-1.602 0.221,-1.254 -0.192,-0.907 -0.291,-0.346 0,0"
               style="fill:#ffffff;fill-opacity:1;fill-rule:nonzero;stroke:none"
               id="path258" /></g><g
             id="g260"
             transform="translate(510.9071,288.5312)"><path
               d="m 0,0 c 0.12,0.143 0.354,0.144 0.524,0.001 0.17,-0.143 0.21,-0.374 0.09,-0.517 C 0.494,-0.659 0.259,-0.659 0.09,-0.517 -0.08,-0.374 -0.12,-0.144 0,0"
               style="fill:#ffffff;fill-opacity:1;fill-rule:nonzero;stroke:none"
               id="path262" /></g><g
             id="g264"
             transform="translate(486.914,286.4297)"><path
               d="M 0,0 C 0.618,0.534 1.611,0.398 2.218,-0.305 2.826,-1.007 2.817,-2.01 2.199,-2.544 1.581,-3.078 0.587,-2.941 -0.02,-2.239 -0.627,-1.536 -0.618,-0.534 0,0"
               style="fill:#000000;fill-opacity:1;fill-rule:nonzero;stroke:none"
               id="path266" /></g><g
             id="g268"
             transform="translate(486.0229,285.5127)"><path
               d="M 0,0 C 0.717,0.619 1.913,0.409 2.672,-0.469 3.431,-1.347 3.465,-2.561 2.749,-3.18 2.032,-3.8 0.835,-3.59 0.077,-2.712 -0.682,-1.833 -0.716,-0.619 0,0"
               style="fill:#ffffff;fill-opacity:1;fill-rule:nonzero;stroke:none"
               id="path270" /></g><g
             id="g272"
             transform="translate(517.3983,284.001)"><path
               d="M 0,0 C 0,0 2.595,2.98 -1.078,5.522 -1.078,5.522 0.564,3.801 0,0"
               style="fill:#ffffff;fill-opacity:1;fill-rule:nonzero;stroke:none"
               id="path274" /></g><g
             id="g276"
             transform="translate(550.8856,246.3174)"><path
               d="m 0,0 c 0,0 0.8,-13.603 -5.921,-21.282 0,0 9.602,11.519 5.921,21.282"
               style="fill:#ffffff;fill-opacity:1;fill-rule:nonzero;stroke:none"
               id="path278" /></g><g
             id="g280"
             transform="translate(493.974,286.5967)"><path
               d="M 0,0 C 0,0 3.059,0.522 3.879,-0.149 4.699,-0.82 0,0 0,0"
               style="fill:#ffffff;fill-opacity:1;fill-rule:nonzero;stroke:none"
               id="path282" /></g><g
             id="g284"
             transform="translate(507.9228,287.4443)"><path
               d="m 0,0 c 0,0 0.105,-1.337 1.679,-2.723 0,0 -1.948,1.36 -1.679,2.723"
               style="fill:#ffffff;fill-opacity:1;fill-rule:nonzero;stroke:none"
               id="path286" /></g><g
             id="g288"
             transform="translate(508.1054,152.1709)"><path
               d="m 0,0 c 0,0 10.208,19.415 10.224,18.389 0.32,-18.562 8.551,15.429 8.551,15.429 l 1.922,-5.761 c 0,0 1.42,21.115 3.498,22.235 l 1.352,0.915 4.41,-2.676 c 0,1.282 0.64,1.12 1.598,1.921 0.959,0.8 2.242,5.279 2.242,5.279 0,0 -0.318,-3.039 0.477,-2.079 0.804,0.96 1.762,3.679 1.762,3.679 l 0.802,-0.961 c 1.92,2.722 -1.443,11.686 -1.443,11.686 l -50.886,34.241 C -29.25,84.055 -0.286,48.691 -0.286,45.975 c 0,-2.723 -5.902,-13.542 -5.902,-13.542 2.081,0 3.201,2.428 2.561,1.466 -0.641,-0.961 -2.878,-5.52 -2.878,-5.52 L -0.747,33.5 -9.706,8.217 c 0,0 10.879,21.922 10.239,13.439 C -0.105,13.176 -11.17,0.684 -7.329,2.126 l 1.783,-0.634 1.493,1.495 -0.215,-1.921 0.962,-0.531 z"
               style="fill:#000000;fill-opacity:1;fill-rule:nonzero;stroke:none"
               id="path290" /></g></g></g></g></g></svg>
