<svg id="Layer_1" data-name="Layer 1" xmlns="http://www.w3.org/2000/svg" viewBox="0 0 1200 1200"><title>logot_vektor</title><path d="M336.48,485.8h-5.59v23.66h-7.33V485.8h-4.35v-6.4h4.35v-3.6a11.39,11.39,0,0,1,.9-4.91,7.1,7.1,0,0,1,2.33-2.85,8,8,0,0,1,3.23-1.31,21.88,21.88,0,0,1,3.6-.31h3.54v6.77h-3.67a4.8,4.8,0,0,0-1.73.34,1.36,1.36,0,0,0-.87,1.4v4.47h5.59Z"/><path d="M342.5,509.52v-43.1h7.33v43.1Z"/><path d="M368.58,510q-6,0-9.56-2.89t-3.54-8.6v-10q0-5.83,3.54-8.75t9.56-2.92q6,0,9.54,2.92t3.5,8.75v10q0,5.72-3.5,8.6T368.58,510Zm0-6.58a9,9,0,0,0,2-.22,6.06,6.06,0,0,0,1.83-.71,4.19,4.19,0,0,0,1.37-1.31,3.69,3.69,0,0,0,.53-2.05V487.91a4,4,0,0,0-.53-2.14,4.27,4.27,0,0,0-1.37-1.37,5.64,5.64,0,0,0-1.83-.74,9,9,0,0,0-2-.22,9.46,9.46,0,0,0-2,.22,5.62,5.62,0,0,0-1.86.74,4.37,4.37,0,0,0-1.37,1.37,4,4,0,0,0-.52,2.14v11.24a3.69,3.69,0,0,0,.52,2.05,4.29,4.29,0,0,0,1.37,1.31,6,6,0,0,0,1.86.71A9.46,9.46,0,0,0,368.58,503.44Z"/><path d="M393.05,499.52a7.53,7.53,0,0,0,2.3,2.74,6.53,6.53,0,0,0,4,1.18,9,9,0,0,0,1.86-.19,5.3,5.3,0,0,0,1.64-.59,3.68,3.68,0,0,0,1.18-1,2.32,2.32,0,0,0,.47-1.43v-.62a1.56,1.56,0,0,0-.47-1.15,4.12,4.12,0,0,0-1.21-.81,8.07,8.07,0,0,0-1.7-.56c-.65-.15-1.3-.28-2-.41a29.62,29.62,0,0,1-3.88-.78,13.09,13.09,0,0,1-3.73-1.61,8.54,8.54,0,0,1-2.79-3,9.38,9.38,0,0,1-1.09-4.79,9.85,9.85,0,0,1,.9-4.39,8,8,0,0,1,2.48-3,10.91,10.91,0,0,1,3.76-1.71,18.57,18.57,0,0,1,4.72-.56,18.77,18.77,0,0,1,6.86,1.29,9.89,9.89,0,0,1,5.13,4.43c-1.12.78-2,1.41-2.66,1.88s-1.53,1.13-2.6,2a6.73,6.73,0,0,0-2.69-2.11,9.17,9.17,0,0,0-4-.87,7.43,7.43,0,0,0-1.49.16,6.73,6.73,0,0,0-1.48.46,3.61,3.61,0,0,0-1.15.81,1.76,1.76,0,0,0-.46,1.25v.37a2,2,0,0,0,1.54,2,20.73,20.73,0,0,0,3.66,1c1.27.2,2.6.46,4,.77a11.78,11.78,0,0,1,3.77,1.56,8.42,8.42,0,0,1,2.79,3.05,10.93,10.93,0,0,1,1.08,5.26,9.46,9.46,0,0,1-1,4.54,8.74,8.74,0,0,1-2.7,3.09,11.68,11.68,0,0,1-4,1.77,20.19,20.19,0,0,1-4.81.56,20.54,20.54,0,0,1-3.7-.34,14.67,14.67,0,0,1-3.57-1.1,12.59,12.59,0,0,1-3-2,8.88,8.88,0,0,1-2.18-2.93Z"/><path d="M421.31,499.52a7.43,7.43,0,0,0,2.3,2.74,6.52,6.52,0,0,0,4,1.18,9.2,9.2,0,0,0,1.87-.19,5.3,5.3,0,0,0,1.64-.59,3.68,3.68,0,0,0,1.18-1,2.32,2.32,0,0,0,.47-1.43v-.62a1.56,1.56,0,0,0-.47-1.15,4.12,4.12,0,0,0-1.21-.81,8.37,8.37,0,0,0-1.71-.56c-.64-.15-1.29-.28-2-.41a29.75,29.75,0,0,1-3.89-.78,13.15,13.15,0,0,1-3.72-1.61,8.65,8.65,0,0,1-2.8-3,9.49,9.49,0,0,1-1.08-4.79,9.85,9.85,0,0,1,.9-4.39,8,8,0,0,1,2.48-3,10.91,10.91,0,0,1,3.76-1.71,18.57,18.57,0,0,1,4.72-.56,18.77,18.77,0,0,1,6.86,1.29,9.92,9.92,0,0,1,5.13,4.43l-2.67,1.88c-.66.48-1.52,1.13-2.59,2a6.7,6.7,0,0,0-2.7-2.11,9.11,9.11,0,0,0-4-.87,7.33,7.33,0,0,0-1.48.16,6.82,6.82,0,0,0-1.49.46,3.68,3.68,0,0,0-1.14.81,1.76,1.76,0,0,0-.46,1.25v.37a2,2,0,0,0,1.54,2,20.6,20.6,0,0,0,3.65,1c1.28.2,2.61.46,4,.77a11.84,11.84,0,0,1,3.78,1.56A8.31,8.31,0,0,1,439,494.8a10.92,10.92,0,0,1,1.09,5.26,9.58,9.58,0,0,1-1,4.54,8.74,8.74,0,0,1-2.7,3.09,11.68,11.68,0,0,1-4,1.77,20.28,20.28,0,0,1-4.82.56,20.51,20.51,0,0,1-3.69-.34,14.4,14.4,0,0,1-3.57-1.1,12.65,12.65,0,0,1-3.05-2,8.86,8.86,0,0,1-2.17-2.93Z"/><path d="M454.16,509.46h-7.33V466.55l7.33-.13v24.16c.83-.95,1.65-1.86,2.45-2.73l2.46-2.67c1.07-1.24,2.2-2.53,3.38-3.85s2.33-2.63,3.45-3.91H475L463.6,490.27q1.42,2.18,2.86,4.32c1,1.43,1.9,2.86,2.85,4.31q.75,1.19,1.65,2.55t1.8,2.76c.6.94,1.2,1.86,1.8,2.77s1.15,1.74,1.65,2.48h-8.76L458.76,495c-.34.42-.66.8-1,1.15l-1,1.09-1.33,1.46-1.34,1.46Z"/><path d="M336.48,613.75h-5.59v23.66h-7.33V613.75h-4.35v-6.4h4.35v-3.6a11.39,11.39,0,0,1,.9-4.91,7.1,7.1,0,0,1,2.33-2.85,8,8,0,0,1,3.23-1.31,21.88,21.88,0,0,1,3.6-.31h3.54v6.77h-3.67a4.8,4.8,0,0,0-1.73.34,1.36,1.36,0,0,0-.87,1.4v4.47h5.59Z"/><path d="M362.68,611.89l-1,.62a5.15,5.15,0,0,0-2.21-.72,26.52,26.52,0,0,0-3-.15,6.22,6.22,0,0,0-2.11.4,6.8,6.8,0,0,0-2.05,1.18A6.13,6.13,0,0,0,350.2,618v19.38h-7.33v-32h4.29l3,4a6.49,6.49,0,0,1,.93-1.61,7.65,7.65,0,0,1,1.49-1.46,7.41,7.41,0,0,1,2-1.06,7,7,0,0,1,2.42-.4,10.09,10.09,0,0,1,2.45.31,13.63,13.63,0,0,1,3.2,1.36Z"/><path d="M378.27,631.39a10.48,10.48,0,0,0,1.86-.19,5.92,5.92,0,0,0,1.84-.65,3.71,3.71,0,0,0,1.36-1.31,3.94,3.94,0,0,0,.53-2.14h7.33a10.85,10.85,0,0,1-1,4.78,9.68,9.68,0,0,1-2.74,3.42,11.57,11.57,0,0,1-4.1,2,19.23,19.23,0,0,1-5.09.65q-6,0-9.56-2.89t-3.54-8.6v-10q0-5.9,3.54-8.79t9.44-2.88a19.43,19.43,0,0,1,5.37.71,11.51,11.51,0,0,1,4.19,2.17,9.94,9.94,0,0,1,2.7,3.64,12.65,12.65,0,0,1,1,5.15v6.71H372.5v3.91a3.69,3.69,0,0,0,.52,2,4.19,4.19,0,0,0,1.37,1.31,6.3,6.3,0,0,0,1.86.71A9.46,9.46,0,0,0,378.27,631.39Zm-5.77-14.22h11.55v-1.31a3.69,3.69,0,0,0-.56-2.08,4.57,4.57,0,0,0-1.43-1.37,6.54,6.54,0,0,0-1.89-.77,8.4,8.4,0,0,0-2-.25,8.1,8.1,0,0,0-2,.25,5.77,5.77,0,0,0-1.83.77,4.49,4.49,0,0,0-1.34,1.37,3.85,3.85,0,0,0-.52,2.08Z"/><path d="M410.44,631.39a10.48,10.48,0,0,0,1.86-.19,5.92,5.92,0,0,0,1.84-.65,3.79,3.79,0,0,0,1.36-1.31,3.94,3.94,0,0,0,.53-2.14h7.33a10.72,10.72,0,0,1-1,4.78,9.54,9.54,0,0,1-2.73,3.42,11.57,11.57,0,0,1-4.1,2,19.23,19.23,0,0,1-5.09.65q-6,0-9.56-2.89t-3.54-8.6v-10q0-5.9,3.54-8.79t9.44-2.88a19.43,19.43,0,0,1,5.37.71,11.51,11.51,0,0,1,4.19,2.17,9.94,9.94,0,0,1,2.7,3.64,12.66,12.66,0,0,1,1,5.15v6.71H404.66v3.91a3.69,3.69,0,0,0,.53,2,4.19,4.19,0,0,0,1.37,1.31,6.3,6.3,0,0,0,1.86.71A9.46,9.46,0,0,0,410.44,631.39Zm-5.78-14.22h11.56v-1.31a3.69,3.69,0,0,0-.56-2.08,4.68,4.68,0,0,0-1.43-1.37,6.48,6.48,0,0,0-1.9-.77,8.26,8.26,0,0,0-2-.25,8.1,8.1,0,0,0-2,.25,5.77,5.77,0,0,0-1.83.77,4.49,4.49,0,0,0-1.34,1.37,3.85,3.85,0,0,0-.53,2.08Z"/><path d="M446.89,637.47v-43.1h7.33v43.1Z"/><path d="M470.31,601.2h-7.64v-6.83h7.64Zm-.07,36.21h-7.51v-32h7.51Z"/><path d="M485.71,609.71a4,4,0,0,1,1.15-1.74,10.89,10.89,0,0,1,2.14-1.58,12.54,12.54,0,0,1,2.7-1.15,10.07,10.07,0,0,1,2.89-.43c3.39,0,5.9.92,7.51,2.76s2.42,4.42,2.42,7.73v11.8a10.39,10.39,0,0,1-1,4.75,9.89,9.89,0,0,1-2.79,3.39,12.39,12.39,0,0,1-4.13,2,18,18,0,0,1-5,.68q-6,0-9.6-2.73c-2.42-1.82-3.63-4.54-3.63-8.14V594.37h7.33Zm0,17.89a3.27,3.27,0,0,0,.65,1.92,4,4,0,0,0,1.43,1.15,6.4,6.4,0,0,0,1.8.56,11.13,11.13,0,0,0,1.89.16,12.14,12.14,0,0,0,2-.16,6,6,0,0,0,1.8-.56,3.38,3.38,0,0,0,1.31-1.15,4.27,4.27,0,0,0,.62-1.92V615.36c-.13-1.57-.51-2.59-1.15-3.07a4.59,4.59,0,0,0-2.77-.71,14.33,14.33,0,0,0-2.23.21,9.08,9.08,0,0,0-2.49.81,5.56,5.56,0,0,0-2,1.71,4.83,4.83,0,0,0-.84,3Z"/><path d="M532.28,611.89l-1,.62a5.1,5.1,0,0,0-2.2-.72,26.78,26.78,0,0,0-3-.15,6.23,6.23,0,0,0-2.12.4,6.92,6.92,0,0,0-2,1.18,6.37,6.37,0,0,0-1.55,2,6.17,6.17,0,0,0-.62,2.82v19.38h-7.33v-32h4.29l3,4a6.49,6.49,0,0,1,.93-1.61,7.65,7.65,0,0,1,1.49-1.46,7.56,7.56,0,0,1,2-1.06,7.06,7.06,0,0,1,2.42-.4,10.23,10.23,0,0,1,2.46.31,13.77,13.77,0,0,1,3.19,1.36Z"/><path d="M547.87,631.39a10.68,10.68,0,0,0,1.87-.19,6,6,0,0,0,1.83-.65,3.71,3.71,0,0,0,1.36-1.31,3.86,3.86,0,0,0,.53-2.14h7.33a10.85,10.85,0,0,1-1,4.78,9.68,9.68,0,0,1-2.74,3.42,11.57,11.57,0,0,1-4.1,2,19.23,19.23,0,0,1-5.09.65q-6,0-9.56-2.89t-3.54-8.6v-10q0-5.9,3.54-8.79t9.44-2.88a19.43,19.43,0,0,1,5.37.71,11.43,11.43,0,0,1,4.19,2.17,9.94,9.94,0,0,1,2.7,3.64,12.65,12.65,0,0,1,1,5.15v6.71H542.1v3.91a3.69,3.69,0,0,0,.52,2,4.29,4.29,0,0,0,1.37,1.31,6.3,6.3,0,0,0,1.86.71A9.46,9.46,0,0,0,547.87,631.39Zm-5.77-14.22h11.55v-1.31a3.69,3.69,0,0,0-.56-2.08,4.57,4.57,0,0,0-1.43-1.37,6.54,6.54,0,0,0-1.89-.77,8.4,8.4,0,0,0-2-.25,8.1,8.1,0,0,0-2,.25,5.77,5.77,0,0,0-1.83.77,4.61,4.61,0,0,0-1.34,1.37,3.85,3.85,0,0,0-.52,2.08Z"/><path d="M596.37,638q-6,0-9.56-2.89t-3.54-8.6v-10q0-5.84,3.54-8.75t9.56-2.92q6,0,9.54,2.92t3.51,8.75v10q0,5.71-3.51,8.6T596.37,638Zm0-6.58a8.92,8.92,0,0,0,2-.22,6.33,6.33,0,0,0,1.83-.71,4.19,4.19,0,0,0,1.37-1.31,3.69,3.69,0,0,0,.53-2V615.86a4,4,0,0,0-.53-2.14,4.27,4.27,0,0,0-1.37-1.37,5.64,5.64,0,0,0-1.83-.74,8.92,8.92,0,0,0-2-.22,9.3,9.3,0,0,0-2,.22,5.59,5.59,0,0,0-1.87.74,4.24,4.24,0,0,0-1.36,1.37,3.88,3.88,0,0,0-.53,2.14V627.1a3.61,3.61,0,0,0,.53,2,4.16,4.16,0,0,0,1.36,1.31,6.26,6.26,0,0,0,1.87.71A9.3,9.3,0,0,0,596.37,631.39Z"/><path d="M624.75,609.46a6.3,6.3,0,0,1,1-1.58,7.85,7.85,0,0,1,1.77-1.52,9.94,9.94,0,0,1,2.39-1.12,9.26,9.26,0,0,1,2.89-.43c4,0,6.77,1,8.38,2.92s2.42,4.86,2.42,8.75v10a20.71,20.71,0,0,1-.55,5.09,8.64,8.64,0,0,1-1.84,3.61,7.57,7.57,0,0,1-3.32,2.11,16.46,16.46,0,0,1-5.09.68,8.78,8.78,0,0,1-2.64-.43,11.45,11.45,0,0,1-2.42-1.12,11.73,11.73,0,0,1-1.9-1.46,4.8,4.8,0,0,1-1.12-1.52V649h-7.32V605.37h4.22Zm0,15.84a5,5,0,0,0,.69,2.64,6.79,6.79,0,0,0,1.67,1.93,7.42,7.42,0,0,0,4.29,1.52,11.73,11.73,0,0,0,1.8-.13,4.34,4.34,0,0,0,1.58-.53,2.85,2.85,0,0,0,1.12-1.11,4,4,0,0,0,.41-2V615.3a4.17,4.17,0,0,0-.41-1.95,3.13,3.13,0,0,0-1.08-1.22,4.64,4.64,0,0,0-1.56-.59,11,11,0,0,0-1.86-.15,6.88,6.88,0,0,0-2.14.37,7,7,0,0,0-2.15,1.15,6.79,6.79,0,0,0-1.67,1.93,5,5,0,0,0-.69,2.64Z"/><path d="M663.26,631.39a10.48,10.48,0,0,0,1.86-.19,6,6,0,0,0,1.83-.65,3.74,3.74,0,0,0,1.37-1.31,3.94,3.94,0,0,0,.53-2.14h7.33a10.85,10.85,0,0,1-1,4.78,9.54,9.54,0,0,1-2.73,3.42,11.66,11.66,0,0,1-4.1,2,19.23,19.23,0,0,1-5.09.65q-6,0-9.57-2.89t-3.54-8.6v-10q0-5.9,3.54-8.79t9.44-2.88a19.45,19.45,0,0,1,5.38.71,11.51,11.51,0,0,1,4.19,2.17,9.94,9.94,0,0,1,2.7,3.64,12.66,12.66,0,0,1,1,5.15v6.71H657.48v3.91a3.69,3.69,0,0,0,.53,2,4.19,4.19,0,0,0,1.37,1.31,6.3,6.3,0,0,0,1.86.71A9.39,9.39,0,0,0,663.26,631.39Zm-5.78-14.22H669v-1.31a3.68,3.68,0,0,0-.55-2.08,4.68,4.68,0,0,0-1.43-1.37,6.48,6.48,0,0,0-1.9-.77,8.28,8.28,0,0,0-2-.25,8,8,0,0,0-2,.25,5.58,5.58,0,0,0-1.83.77,4.49,4.49,0,0,0-1.34,1.37,3.85,3.85,0,0,0-.53,2.08Z"/><path d="M688,605.37l3.1,4.16a4.91,4.91,0,0,1,1.15-1.65,10.52,10.52,0,0,1,2-1.52,10.86,10.86,0,0,1,2.51-1.12,9.43,9.43,0,0,1,2.83-.43,14.91,14.91,0,0,1,4.53.59,6.57,6.57,0,0,1,3,1.92,8,8,0,0,1,1.71,3.45,21.33,21.33,0,0,1,.53,5.09v21.55H702v-22c0-1.61-.31-2.68-.93-3.19a4.15,4.15,0,0,0-2.73-.78,6.38,6.38,0,0,0-2.3.47,9.27,9.27,0,0,0-2.33,1.27,7.76,7.76,0,0,0-1.83,1.92,4.3,4.3,0,0,0-.75,2.43v19.93h-7.33l.07-32Z"/><path d="M738,627.47a7.53,7.53,0,0,0,2.3,2.74,6.52,6.52,0,0,0,4,1.18,9.8,9.8,0,0,0,1.87-.19,5.3,5.3,0,0,0,1.64-.59,3.68,3.68,0,0,0,1.18-1,2.32,2.32,0,0,0,.47-1.43v-.62a1.56,1.56,0,0,0-.47-1.15,4.12,4.12,0,0,0-1.21-.81,8,8,0,0,0-1.71-.56c-.64-.15-1.29-.28-2-.41a29.62,29.62,0,0,1-3.88-.78,13.09,13.09,0,0,1-3.73-1.61,8.54,8.54,0,0,1-2.79-3,9.4,9.4,0,0,1-1.09-4.8,9.83,9.83,0,0,1,.9-4.38,8,8,0,0,1,2.48-3,10.91,10.91,0,0,1,3.76-1.71,18.57,18.57,0,0,1,4.72-.56,18.77,18.77,0,0,1,6.86,1.29,9.89,9.89,0,0,1,5.13,4.43c-1.12.78-2,1.41-2.66,1.88s-1.53,1.13-2.6,2a6.73,6.73,0,0,0-2.69-2.11,9.17,9.17,0,0,0-4-.87,7.43,7.43,0,0,0-1.49.16,6.1,6.1,0,0,0-1.48.46,3.61,3.61,0,0,0-1.15.81,1.76,1.76,0,0,0-.46,1.25v.37a2,2,0,0,0,1.54,2,19.82,19.82,0,0,0,3.65,1c1.28.21,2.61.47,4,.78A11.56,11.56,0,0,1,753,619.7a8.31,8.31,0,0,1,2.78,3,10.8,10.8,0,0,1,1.09,5.26,9.46,9.46,0,0,1-1,4.54,8.74,8.74,0,0,1-2.7,3.09,11.68,11.68,0,0,1-4,1.77,20.22,20.22,0,0,1-4.82.56,20.51,20.51,0,0,1-3.69-.34,14.26,14.26,0,0,1-3.57-1.11,12.26,12.26,0,0,1-3-2,8.75,8.75,0,0,1-2.18-2.93Z"/><path d="M775.11,638q-6,0-9.57-2.89t-3.54-8.6v-10q0-5.84,3.54-8.75t9.57-2.92q6,0,9.53,2.92t3.51,8.75v10q0,5.71-3.51,8.6T775.11,638Zm0-6.58a8.9,8.9,0,0,0,2-.22,6.22,6.22,0,0,0,1.83-.71,4.19,4.19,0,0,0,1.37-1.31,3.69,3.69,0,0,0,.53-2V615.86a4,4,0,0,0-.53-2.14,4.27,4.27,0,0,0-1.37-1.37,5.55,5.55,0,0,0-1.83-.74,8.9,8.9,0,0,0-2-.22,9.32,9.32,0,0,0-2,.22,5.59,5.59,0,0,0-1.87.74,4.34,4.34,0,0,0-1.36,1.37,4,4,0,0,0-.53,2.14V627.1a3.69,3.69,0,0,0,.53,2,4.26,4.26,0,0,0,1.36,1.31,6.26,6.26,0,0,0,1.87.71A9.32,9.32,0,0,0,775.11,631.39Z"/><path d="M817,637.41l-3.13-4.16a4.91,4.91,0,0,1-1.15,1.65,11,11,0,0,1-2,1.52,11.77,11.77,0,0,1-2.51,1.12,9.81,9.81,0,0,1-2.83.43,15.23,15.23,0,0,1-4.53-.59,6.59,6.59,0,0,1-3-1.93,8.06,8.06,0,0,1-1.7-3.44,20.88,20.88,0,0,1-.53-5.09V605.37h7.33v22c0,1.62.31,2.68.93,3.2a4.15,4.15,0,0,0,2.73.78,6.64,6.64,0,0,0,2.3-.47,9.44,9.44,0,0,0,2.33-1.27,7.81,7.81,0,0,0,1.83-1.93,4.24,4.24,0,0,0,.75-2.42V605.37h7.39l-.07,32Z"/><path d="M850.44,611.89l-1,.62a5.1,5.1,0,0,0-2.2-.72,26.65,26.65,0,0,0-3-.15,6.17,6.17,0,0,0-2.11.4,6.68,6.68,0,0,0-2,1.18,6.39,6.39,0,0,0-1.56,2A6.17,6.17,0,0,0,838,618v19.38h-7.32v-32h4.28l3,4a6.24,6.24,0,0,1,.94-1.61,7.66,7.66,0,0,1,3.47-2.52,7.1,7.1,0,0,1,2.42-.4,10.23,10.23,0,0,1,2.46.31,13.81,13.81,0,0,1,3.2,1.36Z"/><path d="M865.49,631.39a10.48,10.48,0,0,0,1.86-.19,5.92,5.92,0,0,0,1.84-.65,3.74,3.74,0,0,0,1.37-1.31,3.86,3.86,0,0,0,.53-2.14h7.36a10.85,10.85,0,0,1-1,4.78,9.57,9.57,0,0,1-2.74,3.42,11.62,11.62,0,0,1-4.11,2,19.36,19.36,0,0,1-5.1.65q-6,0-9.59-2.89t-3.55-8.6v-10q0-5.84,3.54-8.75t9.57-2.92a18.22,18.22,0,0,1,5.18.71,12.12,12.12,0,0,1,4.13,2.11,9.35,9.35,0,0,1,2.7,3.54,12.15,12.15,0,0,1,1,5h-7.33a4.63,4.63,0,0,0-.53-2.3,4.37,4.37,0,0,0-1.37-1.49,5.29,5.29,0,0,0-1.83-.77,8.64,8.64,0,0,0-1.92-.22,9.32,9.32,0,0,0-2,.22,5.59,5.59,0,0,0-1.87.74,4.34,4.34,0,0,0-1.36,1.37,4,4,0,0,0-.53,2.14V627.1a3.69,3.69,0,0,0,.53,2,4.19,4.19,0,0,0,1.37,1.31,6.26,6.26,0,0,0,1.87.71A9.41,9.41,0,0,0,865.49,631.39Z"/><path d="M895.9,631.39a10.48,10.48,0,0,0,1.86-.19,6,6,0,0,0,1.83-.65,3.74,3.74,0,0,0,1.37-1.31,3.94,3.94,0,0,0,.53-2.14h7.32a10.85,10.85,0,0,1-1,4.78,9.54,9.54,0,0,1-2.73,3.42,11.66,11.66,0,0,1-4.1,2,19.28,19.28,0,0,1-5.09.65q-6,0-9.57-2.89t-3.54-8.6v-10q0-5.9,3.54-8.79t9.44-2.88a19.33,19.33,0,0,1,5.37.71,11.47,11.47,0,0,1,4.2,2.17,10.17,10.17,0,0,1,2.7,3.64,12.66,12.66,0,0,1,1,5.15v6.71H890.12v3.91a3.69,3.69,0,0,0,.53,2,4.26,4.26,0,0,0,1.36,1.31,6.26,6.26,0,0,0,1.87.71A9.32,9.32,0,0,0,895.9,631.39Zm-5.78-14.22h11.55v-1.31a3.61,3.61,0,0,0-.56-2.08,4.57,4.57,0,0,0-1.43-1.37,6.54,6.54,0,0,0-1.89-.77,8.34,8.34,0,0,0-2-.25,8,8,0,0,0-1.95.25,5.73,5.73,0,0,0-1.84.77,4.46,4.46,0,0,0-1.33,1.37,3.85,3.85,0,0,0-.53,2.08Z"/><path d="M325.36,694.31a7.42,7.42,0,0,0,2.3,2.73,6.45,6.45,0,0,0,4,1.18,9.87,9.87,0,0,0,1.87-.18,5.87,5.87,0,0,0,1.64-.59,3.8,3.8,0,0,0,1.18-1,2.34,2.34,0,0,0,.47-1.43v-.63a1.58,1.58,0,0,0-.47-1.15,4.12,4.12,0,0,0-1.21-.81,9,9,0,0,0-1.71-.56c-.64-.14-1.29-.28-1.95-.4a32.9,32.9,0,0,1-3.88-.78A12.83,12.83,0,0,1,323.9,689a8.48,8.48,0,0,1-2.8-3,9.46,9.46,0,0,1-1.08-4.79,9.91,9.91,0,0,1,.9-4.39,8,8,0,0,1,2.48-3,11.11,11.11,0,0,1,3.76-1.72,19,19,0,0,1,4.72-.56,18.57,18.57,0,0,1,6.86,1.3,9.9,9.9,0,0,1,5.13,4.42c-1.12.79-2,1.41-2.67,1.89s-1.52,1.13-2.59,2a6.73,6.73,0,0,0-2.69-2.11,9.19,9.19,0,0,0-4-.87,8.15,8.15,0,0,0-1.48.15,6.83,6.83,0,0,0-1.49.47,3.68,3.68,0,0,0-1.14.81,1.75,1.75,0,0,0-.46,1.24v.38a2,2,0,0,0,1.54,2,20.65,20.65,0,0,0,3.65,1q1.92.31,4,.78a11.61,11.61,0,0,1,3.78,1.56,8.23,8.23,0,0,1,2.78,3.05,10.78,10.78,0,0,1,1.09,5.26,9.58,9.58,0,0,1-1,4.54,8.71,8.71,0,0,1-2.7,3.08,11.7,11.7,0,0,1-4,1.78,20.28,20.28,0,0,1-4.82.56,21.47,21.47,0,0,1-3.69-.34,14.85,14.85,0,0,1-3.57-1.11,12.36,12.36,0,0,1-3.05-2,8.82,8.82,0,0,1-2.17-2.92Z"/><path d="M362.43,704.81q-6,0-9.56-2.89t-3.54-8.6v-10q0-5.84,3.54-8.76t9.56-2.92q6,0,9.54,2.92t3.51,8.76v10q0,5.71-3.51,8.6T362.43,704.81Zm0-6.59a9.54,9.54,0,0,0,2-.21,6.24,6.24,0,0,0,1.83-.72,4.06,4.06,0,0,0,1.37-1.3,3.69,3.69,0,0,0,.53-2V682.7a4,4,0,0,0-.53-2.15,4.34,4.34,0,0,0-1.37-1.36,5.79,5.79,0,0,0-1.83-.75,9.54,9.54,0,0,0-2-.21,10,10,0,0,0-2,.21,5.82,5.82,0,0,0-1.87.75,4.31,4.31,0,0,0-1.36,1.36,3.92,3.92,0,0,0-.53,2.15v11.24a3.61,3.61,0,0,0,.53,2,4,4,0,0,0,1.36,1.3,6.27,6.27,0,0,0,1.87.72A10,10,0,0,0,362.43,698.22Z"/><path d="M398,680.59h-5.59v23.66H385.1V680.59h-4.35v-6.4h4.35v-3.6a11.36,11.36,0,0,1,.9-4.91,7.29,7.29,0,0,1,2.33-2.86,8,8,0,0,1,3.23-1.3,20.84,20.84,0,0,1,3.6-.31h3.54V668H395a4.68,4.68,0,0,0-1.74.34,1.35,1.35,0,0,0-.87,1.4v4.47H398Z"/><path d="M401.68,672.2h3.61l3.1-8.38h4.22v8.38h9v6.4h-9v16.94a2.36,2.36,0,0,0,2.67,2.68,17.7,17.7,0,0,0,2.67-.28q1.74-.27,4.41-1v6.41a13.21,13.21,0,0,1-1.83.59c-.72.18-1.45.33-2.17.46s-1.43.21-2.11.27-1.26.1-1.71.1a15.62,15.62,0,0,1-3.67-.41A7.36,7.36,0,0,1,408,703a6.7,6.7,0,0,1-2-2.68,10.71,10.71,0,0,1-.71-4.22V678.6h-3.61Z"/><path d="M431.87,704.25l-8.51-32h7.33l4.47,16.58.62,2.49c.12-.46.25-.89.37-1.31s.27-.84.44-1.3q1.23-3.92,2.67-8.23t2.67-8.23h6.45l5.35,16.52c.16.46.3.87.4,1.24a11,11,0,0,0,.4,1.18c.09-.45.19-.89.31-1.3s.23-.81.31-1.18l4.48-16.46H467l-8.57,32h-6.95l-6.34-18.7c-.45,1.29-.89,2.58-1.3,3.89s-.85,2.57-1.3,3.81c-.59,1.74-1.18,3.58-1.81,5.5s-1.22,3.76-1.8,5.5Z"/><path d="M493.16,672.2h4.22v32h-4.22l-3.1-4a4.59,4.59,0,0,1-1.12,1.52,11.19,11.19,0,0,1-1.9,1.46,10.54,10.54,0,0,1-2.42,1.12,8.49,8.49,0,0,1-2.64.44,16.14,16.14,0,0,1-5.09-.69,7.48,7.48,0,0,1-3.32-2.11,8.41,8.41,0,0,1-1.83-3.6,20.26,20.26,0,0,1-.56-5.09v-10c0-3.89.8-6.81,2.42-8.76s4.41-2.92,8.38-2.92a9.26,9.26,0,0,1,2.89.44,9.94,9.94,0,0,1,2.39,1.12,7.6,7.6,0,0,1,1.77,1.52,6.13,6.13,0,0,1,1,1.58Zm-3.1,12.11a5,5,0,0,0-.69-2.64,6.89,6.89,0,0,0-1.67-1.92,7,7,0,0,0-2.15-1.15,6.88,6.88,0,0,0-2.14-.37,11,11,0,0,0-1.86.15A4.14,4.14,0,0,0,480,679a3,3,0,0,0-1.09,1.21,4.22,4.22,0,0,0-.4,2V694.5a3.94,3.94,0,0,0,.4,2,2.87,2.87,0,0,0,1.12,1.12,4.34,4.34,0,0,0,1.58.53,13.16,13.16,0,0,0,1.8.12,6.88,6.88,0,0,0,2.14-.37,7,7,0,0,0,2.15-1.15,6.89,6.89,0,0,0,1.67-1.92,5,5,0,0,0,.69-2.64Z"/><path d="M526,678.72l-1,.62a5.1,5.1,0,0,0-2.2-.71,26.65,26.65,0,0,0-3-.16,6.25,6.25,0,0,0-2.12.41,6.92,6.92,0,0,0-2,1.18,6.37,6.37,0,0,0-1.55,2,6.11,6.11,0,0,0-.62,2.82v19.38H506.2v-32h4.29l3,4a6.73,6.73,0,0,1,.93-1.62A7.94,7.94,0,0,1,516,673.1a7.68,7.68,0,0,1,2-1.05,7.07,7.07,0,0,1,2.42-.41,10.76,10.76,0,0,1,2.46.31,14.34,14.34,0,0,1,3.19,1.37Z"/><path d="M541.6,698.22a10.62,10.62,0,0,0,1.87-.18,6,6,0,0,0,1.83-.66,3.68,3.68,0,0,0,1.36-1.3,4,4,0,0,0,.53-2.14h7.33a10.88,10.88,0,0,1-1,4.78,9.68,9.68,0,0,1-2.74,3.42,11.39,11.39,0,0,1-4.1,2,18.82,18.82,0,0,1-5.09.66q-6,0-9.56-2.89t-3.54-8.6v-10q0-5.9,3.54-8.79t9.44-2.89a19.05,19.05,0,0,1,5.37.72,11.36,11.36,0,0,1,4.19,2.17,9.83,9.83,0,0,1,2.7,3.63,12.7,12.7,0,0,1,1,5.16V690H535.83v3.91a3.69,3.69,0,0,0,.52,2,4.15,4.15,0,0,0,1.37,1.3,6.32,6.32,0,0,0,1.86.72A10.12,10.12,0,0,0,541.6,698.22ZM535.83,684h11.55v-1.3a3.69,3.69,0,0,0-.56-2.08,4.46,4.46,0,0,0-1.43-1.37,6.85,6.85,0,0,0-1.89-.78,8.91,8.91,0,0,0-2-.24,8.6,8.6,0,0,0-2,.24,6,6,0,0,0-1.83.78,4.49,4.49,0,0,0-1.34,1.37,3.85,3.85,0,0,0-.52,2.08Z"/><path d="M585.88,704.25h-7.33V661.33l7.33-.12v24.16c.83-1,1.65-1.87,2.45-2.73s1.63-1.76,2.46-2.68q1.61-1.86,3.38-3.85t3.45-3.91h9.13l-11.43,12.86q1.42,2.18,2.86,4.31t2.85,4.32q.75,1.18,1.65,2.55l1.8,2.76q.9,1.39,1.8,2.76l1.65,2.49h-8.76l-8.69-14.47-1,1.15-1,1.08-1.33,1.46-1.34,1.46Z"/><path d="M623.76,704.81q-6,0-9.56-2.89t-3.54-8.6v-10q0-5.84,3.54-8.76t9.56-2.92q6,0,9.54,2.92t3.51,8.76v10q0,5.71-3.51,8.6T623.76,704.81Zm0-6.59a9.54,9.54,0,0,0,2-.21,6.35,6.35,0,0,0,1.83-.72A4.06,4.06,0,0,0,629,696a3.69,3.69,0,0,0,.53-2V682.7a4,4,0,0,0-.53-2.15,4.34,4.34,0,0,0-1.37-1.36,5.89,5.89,0,0,0-1.83-.75,9.54,9.54,0,0,0-2-.21,10.12,10.12,0,0,0-2,.21,5.86,5.86,0,0,0-1.86.75,4.31,4.31,0,0,0-1.36,1.36,3.92,3.92,0,0,0-.53,2.15v11.24a3.61,3.61,0,0,0,.53,2,4,4,0,0,0,1.36,1.3,6.32,6.32,0,0,0,1.86.72A10.12,10.12,0,0,0,623.76,698.22Z"/><path d="M648.23,694.31a7.42,7.42,0,0,0,2.3,2.73,6.46,6.46,0,0,0,4,1.18,9.77,9.77,0,0,0,1.86-.18,5.87,5.87,0,0,0,1.64-.59,3.8,3.8,0,0,0,1.18-1,2.28,2.28,0,0,0,.47-1.43v-.63a1.54,1.54,0,0,0-.47-1.15,4.12,4.12,0,0,0-1.21-.81,8.69,8.69,0,0,0-1.7-.56c-.65-.14-1.3-.28-2-.4a33.31,33.31,0,0,1-3.88-.78,12.83,12.83,0,0,1-3.73-1.62,8.36,8.36,0,0,1-2.79-3,9.36,9.36,0,0,1-1.09-4.79,9.91,9.91,0,0,1,.9-4.39,7.88,7.88,0,0,1,2.49-3A11,11,0,0,1,650,672.2a19,19,0,0,1,4.72-.56,18.57,18.57,0,0,1,6.86,1.3,9.87,9.87,0,0,1,5.13,4.42c-1.12.79-2,1.41-2.66,1.89s-1.53,1.13-2.6,2a6.73,6.73,0,0,0-2.69-2.11,9.17,9.17,0,0,0-4-.87,8.17,8.17,0,0,0-1.49.15,6.74,6.74,0,0,0-1.48.47,3.61,3.61,0,0,0-1.15.81,1.75,1.75,0,0,0-.46,1.24v.38a2,2,0,0,0,1.55,2,20.42,20.42,0,0,0,3.65,1c1.27.21,2.61.47,4,.78a11.56,11.56,0,0,1,3.77,1.56,8.25,8.25,0,0,1,2.79,3.05,10.9,10.9,0,0,1,1.08,5.26,9.46,9.46,0,0,1-1,4.54,8.71,8.71,0,0,1-2.7,3.08,11.7,11.7,0,0,1-4,1.78,20.19,20.19,0,0,1-4.81.56,21.49,21.49,0,0,1-3.7-.34,15.14,15.14,0,0,1-3.57-1.11,12.3,12.3,0,0,1-3-2,8.84,8.84,0,0,1-2.18-2.92Z"/><path d="M685.31,704.81q-6,0-9.57-2.89t-3.54-8.6v-10q0-5.84,3.54-8.76t9.57-2.92q6,0,9.53,2.92t3.51,8.76v10q0,5.71-3.51,8.6T685.31,704.81Zm0-6.59a9.52,9.52,0,0,0,2-.21,6.3,6.3,0,0,0,1.84-.72,4,4,0,0,0,1.36-1.3,3.69,3.69,0,0,0,.53-2V682.7a4,4,0,0,0-.53-2.15,4.31,4.31,0,0,0-1.36-1.36,5.85,5.85,0,0,0-1.84-.75,9.52,9.52,0,0,0-2-.21,10,10,0,0,0-2,.21,5.77,5.77,0,0,0-1.86.75,4.34,4.34,0,0,0-1.37,1.36,4,4,0,0,0-.53,2.15v11.24a3.69,3.69,0,0,0,.53,2,4.06,4.06,0,0,0,1.37,1.3,6.21,6.21,0,0,0,1.86.72A10,10,0,0,0,685.31,698.22Z"/><path d="M712.32,704.25l-11.05-32H709l4.53,14c.25.78.52,1.59.81,2.42s.56,1.61.81,2.36c.12.37.21.62.25.74l.09.28.09.28c0,.13.13.4.25.81a9.42,9.42,0,0,0,.34-1.06c.11-.37.22-.72.34-1q.38-1.25.78-2.43c.27-.78.53-1.57.78-2.35v.06q.49-1.62,1-3.33c.38-1.13.75-2.28,1.12-3.44s.78-2.39,1.21-3.7.82-2.49,1.15-3.57h7.76l-11,32Z"/><path d="M755.17,672.2h4.23v32h-4.23l-3.1-4a4.59,4.59,0,0,1-1.12,1.52,11.51,11.51,0,0,1-1.89,1.46,10.82,10.82,0,0,1-2.43,1.12,8.48,8.48,0,0,1-2.63.44,16.2,16.2,0,0,1-5.1-.69,7.54,7.54,0,0,1-3.32-2.11,8.41,8.41,0,0,1-1.83-3.6,20.73,20.73,0,0,1-.56-5.09v-10q0-5.84,2.42-8.76c1.62-1.94,4.41-2.92,8.39-2.92a9.24,9.24,0,0,1,2.88.44,9.94,9.94,0,0,1,2.39,1.12,7.6,7.6,0,0,1,1.77,1.52,6.13,6.13,0,0,1,1,1.58Zm-3.1,12.11a5.14,5.14,0,0,0-.68-2.64,7.09,7.09,0,0,0-1.68-1.92,7.18,7.18,0,0,0-4.29-1.52,11,11,0,0,0-1.86.15A4.14,4.14,0,0,0,742,679a3,3,0,0,0-1.09,1.21,4.22,4.22,0,0,0-.4,2V694.5a3.94,3.94,0,0,0,.4,2,2.87,2.87,0,0,0,1.12,1.12,4.34,4.34,0,0,0,1.58.53,13.16,13.16,0,0,0,1.8.12,7.18,7.18,0,0,0,4.29-1.52,7.09,7.09,0,0,0,1.68-1.92,5.14,5.14,0,0,0,.68-2.64Z"/><path d="M379.74,569.71v4.07l-29.49-11.56-3.37,11.56h-1.52l-2.57-13.28a26.62,26.62,0,0,1-7.94-6.74,18.93,18.93,0,0,1-3.93-10,7.89,7.89,0,0,0-6.81-7.51v-1.16s11-9.65,18.21-.59a68.06,68.06,0,0,0,5,5.7s18.14,16.56,21.23,19.53Z"/></svg>